if (_typeface_js && _typeface_js.loadFace) _typeface_js.loadFace({"glyphs":{"S":{"x_min":71,"x_max":702,"ha":772,"o":"m 702 287 q 615 57 702 139 q 378 -25 529 -25 q 219 5 283 -25 q 93 140 134 45 q 75 220 77 173 q 71 330 71 268 l 186 330 q 219 147 186 200 q 383 79 262 79 q 529 125 475 79 q 582 261 582 170 q 512 422 582 384 q 412 461 508 424 q 309 498 345 486 q 207 541 244 522 q 111 635 138 577 q 84 777 84 692 q 164 984 84 906 q 374 1062 245 1062 q 596 988 519 1062 q 671 767 671 913 l 555 767 q 516 903 555 855 q 390 958 473 958 q 234 895 278 958 q 204 771 204 852 q 302 630 204 667 l 468 567 q 659 452 610 515 q 702 287 702 397 "},"¦":{"x_min":94,"x_max":204,"ha":306,"o":"m 204 920 l 204 520 l 94 520 l 94 920 l 204 920 m 204 406 l 204 6 l 94 6 l 94 406 l 204 406 "},"/":{"x_min":-23,"x_max":415,"ha":383,"o":"m 415 1039 l 75 -33 l -23 -33 l 316 1039 l 415 1039 "},"y":{"x_min":-11,"x_max":591,"ha":614,"o":"m 591 777 l 383 87 q 319 -110 347 -45 q 240 -228 285 -191 q 119 -268 204 -268 q 22 -250 75 -268 l 22 -141 q 112 -169 65 -169 q 201 -132 168 -169 q 240 -10 240 -91 l -11 777 l 110 777 l 296 98 l 471 777 l 591 777 "},"Ž":{"x_min":33,"x_max":656,"ha":701,"o":"m 656 0 l 33 0 l 33 110 l 514 929 l 42 929 l 42 1039 l 646 1039 l 646 929 l 163 110 l 656 110 l 656 0 m 577 1286 q 489 1167 524 1215 q 434 1088 448 1112 l 302 1088 l 161 1286 l 280 1286 l 368 1165 l 444 1286 l 577 1286 "},"Á":{"x_min":11,"x_max":754,"ha":777,"o":"m 754 0 l 623 0 l 547 296 l 217 296 l 141 0 l 11 0 l 305 1039 l 470 1039 l 754 0 m 513 404 l 383 940 l 251 404 l 513 404 m 570 1286 l 395 1088 l 296 1088 l 417 1286 l 570 1286 "},"g":{"x_min":65,"x_max":602,"ha":701,"o":"m 602 186 q 572 -112 602 -30 q 327 -274 515 -274 q 159 -218 223 -274 q 87 -76 95 -162 l 197 -76 q 240 -151 214 -129 q 328 -175 266 -175 q 465 -70 432 -175 q 481 66 481 -23 q 405 -8 447 15 q 305 -33 364 -33 q 103 119 163 -33 q 65 372 65 219 q 98 625 65 526 q 305 799 156 799 q 431 761 380 799 q 481 689 471 730 l 481 777 l 602 777 l 602 186 m 481 383 q 443 630 481 570 q 328 689 404 689 q 206 581 247 689 q 175 372 175 497 q 214 170 175 260 q 328 66 258 66 q 461 183 426 66 q 481 383 481 250 "},"²":{"x_min":31.234375,"x_max":321.84375,"ha":382,"o":"m 321 555 l 31 555 q 55 669 39 635 q 102 730 70 702 l 212 840 q 238 878 231 861 q 244 919 244 895 q 244 944 244 935 q 227 1005 244 982 q 173 1026 210 1026 q 96 899 96 1026 l 37 899 q 61 1031 37 991 q 173 1081 92 1081 q 278 1037 242 1081 q 311 933 311 998 q 297 852 311 882 q 255 795 281 822 q 226 766 240 780 q 161 708 198 738 q 124 673 135 684 q 96 611 96 642 l 321 611 l 321 555 "},"–":{"x_min":0,"x_max":700,"ha":729,"o":"m 700 383 l 0 383 l 0 491 l 700 491 l 700 383 "},"ë":{"x_min":60,"x_max":548.828125,"ha":617,"o":"m 548 376 l 174 376 q 174 346 174 359 q 174 323 174 332 q 193 158 174 210 q 312 72 225 72 q 415 131 383 72 q 440 256 440 178 l 543 256 q 487 60 543 134 q 309 -21 426 -21 q 130 66 191 -21 q 60 387 60 167 q 105 651 60 548 q 307 793 168 793 q 521 652 471 793 q 548 376 548 574 m 434 467 q 419 617 434 570 q 308 700 391 700 q 193 618 223 700 q 174 467 174 566 l 434 467 m 483 897 l 363 897 l 363 1039 l 483 1039 l 483 897 m 276 897 l 155 897 l 155 1039 l 276 1039 l 276 897 "},"ƒ":{"x_min":11,"x_max":678,"ha":700,"o":"m 678 1038 l 655 917 q 621 938 637 927 q 568 951 595 951 q 480 836 512 951 q 448 655 463 776 l 612 655 l 612 557 l 426 557 l 338 10 q 269 -183 313 -116 q 112 -271 211 -271 q 11 -251 63 -271 l 22 -152 q 63 -163 42 -159 q 98 -168 83 -168 q 172 -132 145 -168 q 217 42 198 -96 l 305 557 l 152 557 l 152 655 l 327 655 q 351 777 343 731 q 437 984 380 927 q 508 1030 463 1010 q 603 1050 551 1050 q 640 1048 627 1050 q 678 1038 652 1046 "},"Î":{"x_min":-26.484375,"x_max":389.515625,"ha":383,"o":"m 241 0 l 121 0 l 121 1039 l 241 1039 l 241 0 m 389 1083 l 257 1083 l 180 1204 l 93 1083 l -26 1083 l 115 1280 l 247 1280 q 321 1173 269 1241 q 389 1083 354 1127 "},"e":{"x_min":60,"x_max":548.828125,"ha":617,"o":"m 548 376 l 174 376 q 174 346 174 359 q 174 323 174 332 q 193 158 174 210 q 312 72 225 72 q 415 131 383 72 q 440 256 440 178 l 543 256 q 487 60 543 134 q 309 -21 426 -21 q 130 66 191 -21 q 60 387 60 167 q 105 651 60 548 q 307 793 168 793 q 521 652 471 793 q 548 376 548 574 m 434 467 q 419 617 434 570 q 308 700 391 700 q 193 618 223 700 q 174 467 174 566 l 434 467 "},"Ã":{"x_min":11,"x_max":754,"ha":777,"o":"m 754 0 l 623 0 l 547 296 l 217 296 l 141 0 l 11 0 l 305 1039 l 470 1039 l 754 0 m 513 404 l 383 940 l 251 404 l 513 404 m 633 1258 q 604 1147 633 1188 q 490 1094 566 1094 q 401 1116 461 1094 q 294 1148 328 1143 q 254 1130 271 1148 q 228 1083 237 1112 l 162 1083 q 212 1209 162 1163 q 304 1247 254 1247 q 409 1220 340 1247 q 501 1192 477 1192 q 550 1212 532 1192 q 566 1258 566 1230 l 633 1258 "},"J":{"x_min":33.203125,"x_max":514,"ha":612,"o":"m 514 328 q 480 75 514 140 q 273 -22 431 -22 q 70 75 122 -22 q 33 327 33 146 l 152 327 q 152 291 152 306 q 152 266 152 276 q 158 160 152 185 q 262 88 174 88 q 352 111 326 88 q 393 251 393 147 l 393 1039 l 514 1039 l 514 328 "},"»":{"x_min":110,"x_max":559,"ha":700,"o":"m 559 383 l 350 174 l 350 295 l 492 437 l 350 579 l 350 689 l 559 480 l 559 383 m 317 383 l 110 174 l 110 295 l 251 437 l 110 579 l 110 689 l 317 480 l 317 383 "},"©":{"x_min":11,"x_max":1107,"ha":1115,"o":"m 567 -22 q 154 151 311 -22 q 11 532 11 309 q 146 888 11 744 q 567 1050 299 1050 q 973 888 826 1050 q 1107 529 1107 742 q 969 151 1107 308 q 567 -22 818 -22 m 995 361 q 1015 457 1007 404 q 1023 550 1023 509 q 885 857 1023 742 q 578 962 760 962 q 250 845 384 962 q 99 492 99 715 q 247 175 99 296 q 572 65 383 65 q 831 137 719 65 q 995 361 953 216 m 841 623 l 753 623 q 685 721 729 689 q 584 753 639 753 q 435 693 501 753 q 369 545 369 633 q 369 530 369 537 q 372 514 372 519 q 437 330 372 398 q 581 268 496 268 q 691 303 642 268 q 764 415 745 344 l 829 415 q 839 398 839 415 q 805 309 839 362 q 710 228 763 246 q 646 208 681 216 q 582 202 611 202 q 364 291 456 202 q 273 514 273 380 q 374 740 273 646 q 591 830 470 830 q 738 782 675 830 q 841 623 809 728 "},"˘":{"x_min":22,"x_max":438,"ha":460,"o":"m 438 1064 q 350 945 385 993 q 295 866 309 890 l 163 866 l 22 1064 l 141 1064 l 229 943 l 305 1064 l 438 1064 "},"ò":{"x_min":65,"x_max":624,"ha":700,"o":"m 624 393 q 565 90 624 196 q 349 -33 497 -33 q 117 100 187 -33 q 65 383 65 201 q 116 664 65 564 q 349 799 185 799 q 561 688 493 799 q 624 393 624 586 m 503 383 q 479 590 503 522 q 338 700 441 700 q 205 591 238 700 q 186 393 186 529 q 209 182 186 249 q 349 77 247 77 q 479 189 441 77 q 503 383 503 261 m 407 863 l 308 863 l 123 1061 l 287 1061 l 407 863 "},"^":{"x_min":99,"x_max":602,"ha":701,"o":"m 602 668 l 525 668 l 350 908 l 175 668 l 99 668 l 305 1027 l 393 1027 l 602 668 "},"«":{"x_min":98,"x_max":579,"ha":700,"o":"m 579 163 l 349 393 l 349 480 l 567 699 l 567 590 l 415 437 l 579 273 l 579 163 m 327 163 l 98 393 l 98 480 l 316 699 l 316 590 l 163 437 l 327 273 l 327 163 "},"D":{"x_min":110,"x_max":766,"ha":842,"o":"m 766 558 q 715 213 766 336 q 393 0 628 0 l 110 0 l 110 1039 l 415 1039 q 642 961 558 1039 q 743 775 714 894 q 766 558 766 686 m 635 514 q 600 806 635 726 q 383 929 547 929 l 230 929 l 230 110 l 415 110 q 603 241 551 110 q 635 465 635 323 q 635 514 635 501 "},"∙":{"x_min":143,"x_max":274,"ha":424,"o":"m 264 305 q 208 275 244 275 q 173 284 188 275 q 143 340 143 304 q 152 375 143 359 q 208 405 172 405 q 243 395 228 405 q 274 340 274 376 q 264 305 274 320 "},"ÿ":{"x_min":-11,"x_max":591,"ha":614,"o":"m 591 777 l 383 87 q 319 -110 347 -45 q 240 -228 285 -191 q 119 -268 204 -268 q 22 -250 75 -268 l 22 -141 q 112 -169 65 -169 q 201 -132 168 -169 q 240 -10 240 -91 l -11 777 l 110 777 l 296 98 l 471 777 l 591 777 m 469 841 l 349 841 l 349 983 l 469 983 l 469 841 m 262 841 l 141 841 l 141 983 l 262 983 l 262 841 "},"Ł":{"x_min":0,"x_max":0,"ha":0},"í":{"x_min":81.515625,"x_max":355.515625,"ha":306,"o":"m 208 0 l 98 0 l 98 777 l 208 777 l 208 0 m 355 1050 l 180 852 l 81 852 l 202 1050 l 355 1050 "},"ˆ":{"x_min":22,"x_max":438,"ha":460,"o":"m 438 874 l 305 874 l 229 995 l 141 874 l 22 874 l 163 1072 l 295 1072 q 370 965 318 1033 q 438 874 403 919 "},"w":{"x_min":22,"x_max":908,"ha":938,"o":"m 908 777 l 710 0 l 589 0 l 470 677 l 349 0 l 217 0 l 22 777 l 141 777 l 284 109 l 403 777 l 524 777 l 655 98 l 776 777 l 908 777 "},"$":{"x_min":42.8125,"x_max":646,"ha":700,"o":"m 646 273 q 599 80 646 151 q 372 -22 533 -22 l 372 -163 l 305 -163 l 305 -22 q 80 92 140 -22 q 42 316 42 166 l 163 316 q 189 141 163 187 q 305 87 216 95 l 305 470 q 121 570 175 516 q 54 754 54 638 q 138 960 54 883 q 305 1027 210 1027 l 305 1126 l 372 1126 l 372 1027 q 570 943 508 1027 q 623 742 623 872 l 502 742 q 479 872 502 834 q 372 917 449 917 l 372 579 q 606 438 555 502 q 646 273 646 390 m 305 601 l 305 917 q 213 870 240 902 q 186 765 186 837 q 215 665 186 702 q 305 601 244 627 m 525 251 q 473 384 525 337 q 372 437 441 414 l 372 87 q 487 124 449 87 q 525 251 525 162 "},"∫":{"x_min":11,"x_max":678,"ha":700,"o":"m 678 1038 l 655 917 q 621 938 637 927 q 568 951 595 951 q 480 836 512 951 q 448 655 463 776 l 338 11 q 269 -183 313 -116 q 112 -271 211 -271 q 11 -251 63 -271 l 22 -152 q 63 -163 42 -159 q 98 -168 83 -168 q 172 -132 145 -168 q 217 43 198 -95 l 327 655 q 351 777 343 731 q 437 984 380 927 q 508 1030 463 1011 q 603 1050 551 1050 q 640 1048 627 1050 q 678 1038 652 1046 "},"\\":{"x_min":-55,"x_max":393,"ha":350,"o":"m 393 0 l 305 0 l -55 1039 l 32 1039 l 393 0 "},"Ì":{"x_min":-43.296875,"x_max":241,"ha":383,"o":"m 241 0 l 121 0 l 121 1039 l 241 1039 l 241 0 m 240 1086 l 141 1086 l -43 1283 l 121 1283 l 240 1086 "},"µ":{"x_min":20.578125,"x_max":584,"ha":694,"o":"m 584 193 q 536 36 584 87 q 398 -15 489 -15 q 306 7 347 -15 q 214 106 251 38 l 130 -215 l 20 -215 l 104 104 l 104 783 l 214 783 l 214 247 q 270 122 214 177 q 387 69 327 69 q 452 96 427 69 q 476 182 476 122 l 476 783 l 584 783 l 584 193 "},"Ç":{"x_min":65,"x_max":700.3125,"ha":777,"o":"m 700 383 q 639 103 700 205 q 404 -22 564 -22 q 124 129 201 -22 q 65 502 65 247 q 77 752 65 668 q 164 974 98 897 q 404 1072 248 1072 q 609 999 534 1072 q 700 721 700 912 l 590 721 q 558 882 590 828 q 392 962 512 962 q 217 777 260 962 q 197 502 197 687 q 224 221 197 307 q 392 87 267 87 q 551 194 507 87 q 579 383 579 262 l 700 383 m 460 13 l 386 -70 q 440 -63 418 -63 q 519 -88 490 -63 q 547 -149 547 -115 q 505 -226 547 -194 q 384 -259 464 -259 q 252 -237 327 -259 l 283 -180 q 335 -200 312 -194 q 377 -205 358 -205 q 425 -191 408 -205 q 442 -158 442 -177 q 425 -123 442 -137 q 377 -109 408 -109 q 334 -116 362 -109 l 302 -96 l 395 13 l 460 13 "},"’":{"x_min":76,"x_max":218,"ha":306,"o":"m 218 908 q 172 745 218 802 q 76 689 134 698 l 76 754 q 133 811 119 769 q 141 886 141 836 l 76 886 l 76 1039 l 218 1039 l 218 908 "},"-":{"x_min":54,"x_max":393,"ha":460,"o":"m 393 372 l 54 372 l 54 492 l 393 492 l 393 372 "},"Q":{"x_min":76,"x_max":810.421875,"ha":853,"o":"m 810 33 l 743 -42 l 623 54 q 518 -8 580 11 q 426 -22 472 -22 q 140 142 224 -22 q 76 503 76 266 q 146 904 76 769 q 415 1061 229 1061 q 677 952 596 1061 q 766 547 766 833 q 752 308 766 380 q 689 131 736 235 l 810 33 m 646 536 q 581 874 646 785 q 415 951 526 951 q 228 800 280 951 q 197 547 197 708 q 197 512 197 524 q 197 491 197 498 q 237 217 197 311 q 426 88 292 88 q 495 101 463 88 q 536 131 527 114 l 437 208 l 502 285 l 590 208 q 629 325 611 235 q 647 494 647 415 q 647 520 647 512 q 646 536 646 532 "},"M":{"x_min":106,"x_max":975,"ha":1083,"o":"m 975 0 l 860 0 l 860 858 l 860 990 l 825 850 l 607 0 l 469 0 l 251 862 l 221 990 l 221 855 l 221 0 l 106 0 l 106 1042 l 309 1042 l 514 229 q 531 152 525 183 q 536 74 536 120 q 546 133 543 113 q 565 230 555 188 l 772 1042 l 975 1042 l 975 0 "},"C":{"x_min":65,"x_max":700.3125,"ha":777,"o":"m 700 383 q 639 103 700 205 q 404 -22 564 -22 q 124 129 201 -22 q 65 502 65 247 q 77 752 65 668 q 164 974 98 897 q 404 1072 248 1072 q 609 999 534 1072 q 700 721 700 912 l 590 721 q 558 882 590 828 q 392 962 512 962 q 217 777 260 962 q 197 502 197 687 q 224 221 197 307 q 392 88 267 88 q 551 194 507 88 q 579 383 579 262 l 700 383 "},"œ":{"x_min":43,"x_max":940.53125,"ha":1006,"o":"m 940 250 q 896 86 940 162 q 710 -22 833 -22 q 599 1 644 -22 q 513 88 554 25 q 438 13 496 46 q 316 -22 380 -22 q 94 97 158 -22 q 43 383 43 193 q 78 637 43 548 q 305 787 140 787 q 434 753 376 787 q 513 676 485 724 q 585 756 550 732 q 699 787 630 787 q 909 628 855 787 q 940 372 940 539 l 579 372 q 590 179 579 222 q 711 77 616 77 q 807 134 776 77 q 830 250 830 180 l 940 250 m 821 471 q 802 624 821 581 q 699 688 776 688 q 602 611 634 688 q 579 471 579 553 l 821 471 m 459 392 q 429 610 459 543 q 316 688 396 688 q 187 581 223 688 q 164 383 164 510 q 199 153 164 229 q 316 77 235 77 q 445 189 416 77 q 459 392 459 243 "},"!":{"x_min":153,"x_max":306,"ha":460,"o":"m 296 666 l 274 251 l 186 251 l 163 666 l 163 1027 l 296 1027 l 296 666 m 306 0 l 153 0 l 153 142 l 306 142 l 306 0 "},"ç":{"x_min":54,"x_max":558.125,"ha":612,"o":"m 558 273 q 521 93 558 165 q 327 -22 463 -22 q 109 87 174 -22 q 54 372 54 182 q 99 668 54 568 q 327 810 164 810 q 491 727 424 810 q 558 536 558 646 l 448 536 q 421 647 448 604 q 327 700 390 700 q 198 595 234 700 q 175 411 175 527 q 175 372 175 383 q 192 179 175 234 q 327 76 226 76 q 420 127 391 76 q 448 273 448 179 l 558 273 m 382 14 l 312 -66 q 338 -62 323 -63 q 363 -60 352 -60 q 439 -85 410 -60 q 469 -145 469 -110 q 431 -216 469 -187 q 313 -251 387 -251 q 183 -229 255 -251 l 213 -174 q 262 -191 237 -186 q 304 -198 287 -198 q 351 -184 334 -198 q 366 -151 366 -172 q 349 -119 366 -134 q 305 -105 333 -105 q 263 -112 288 -105 l 233 -92 l 323 14 l 382 14 "},"È":{"x_min":98,"x_max":634.890625,"ha":700,"o":"m 634 929 l 218 929 l 218 602 l 601 602 l 601 492 l 218 492 l 218 110 l 623 110 l 623 0 l 98 0 l 98 1039 l 634 1039 l 634 929 m 456 1093 l 357 1093 l 172 1290 l 336 1290 l 456 1093 "},"{":{"x_min":10.21875,"x_max":369.765625,"ha":380,"o":"m 135 72 l 135 301 q 135 318 135 312 q 125 385 135 365 q 90 420 114 404 q 54 441 75 432 q 10 455 33 450 q 64 471 43 461 q 104 500 83 479 q 129 543 124 521 q 135 603 135 565 l 135 861 q 150 957 135 926 q 193 1006 164 986 q 266 1036 230 1030 q 369 1042 301 1042 q 272 985 297 1019 q 246 886 246 950 l 246 626 q 220 518 246 552 q 107 458 189 473 q 220 387 190 438 q 246 263 246 346 l 246 23 q 272 -72 246 -37 q 369 -129 298 -108 q 361 -129 365 -129 q 183 -87 229 -129 q 135 72 135 -45 "},"X":{"x_min":21,"x_max":754,"ha":778,"o":"m 754 0 l 601 0 l 382 426 l 173 0 l 21 0 l 315 524 l 31 1039 l 173 1039 l 382 634 l 601 1039 l 742 1039 l 459 524 l 754 0 "},"ô":{"x_min":65,"x_max":624,"ha":700,"o":"m 624 393 q 565 90 624 196 q 349 -33 497 -33 q 117 100 187 -33 q 65 383 65 201 q 116 664 65 564 q 349 799 185 799 q 561 688 493 799 q 624 393 624 586 m 503 383 q 479 590 503 522 q 338 700 441 700 q 205 591 238 700 q 186 393 186 529 q 209 182 186 249 q 349 77 247 77 q 479 189 441 77 q 503 383 503 261 m 563 868 l 430 868 l 354 989 l 266 868 l 147 868 l 288 1065 l 421 1065 q 495 958 443 1026 q 563 868 528 912 "},"¼":{"x_min":61.0625,"x_max":704.421875,"ha":764,"o":"m 704 132 l 660 132 l 660 0 l 600 0 l 600 132 l 408 132 l 408 192 l 600 524 l 660 524 l 660 192 l 704 192 l 704 132 m 600 192 l 600 426 l 462 192 l 600 192 m 236 473 l 175 473 l 175 851 l 66 851 l 66 894 q 148 913 125 899 q 186 993 186 936 l 236 993 l 236 473 m 660 876 l 133 -21 l 61 -21 l 586 876 l 660 876 "},"#":{"x_min":0,"x_max":678,"ha":700,"o":"m 678 678 l 655 590 l 502 590 l 448 438 l 612 438 l 590 350 l 426 350 l 316 0 l 240 0 l 350 350 l 229 350 l 120 0 l 43 0 l 152 350 l 0 350 l 22 438 l 175 438 l 229 590 l 76 590 l 98 678 l 251 678 l 361 1039 l 437 1039 l 327 678 l 448 678 l 558 1039 l 634 1039 l 525 678 l 678 678 m 426 590 l 305 590 l 251 438 l 372 438 l 426 590 "},"Ê":{"x_min":98,"x_max":634.890625,"ha":700,"o":"m 634 929 l 218 929 l 218 602 l 601 602 l 601 492 l 218 492 l 218 110 l 623 110 l 623 0 l 98 0 l 98 1039 l 634 1039 l 634 929 m 583 1083 l 451 1083 l 375 1204 l 287 1083 l 167 1083 l 309 1280 l 441 1280 q 515 1173 464 1241 q 583 1083 549 1127 "},")":{"x_min":54.28125,"x_max":350,"ha":460,"o":"m 350 383 q 298 27 350 194 q 130 -295 243 -151 l 54 -295 q 162 -54 122 -174 q 229 361 229 147 q 203 658 229 537 q 54 1039 165 845 l 141 1039 q 287 748 240 882 q 350 383 350 573 "},"Å":{"x_min":11.203125,"x_max":754.609375,"ha":777,"o":"m 754 0 l 623 0 l 547 296 l 218 296 l 141 0 l 11 0 l 305 1038 l 471 1038 l 754 0 m 514 404 l 383 939 l 251 404 l 514 404 m 509 1198 q 477 1120 509 1153 q 399 1087 445 1087 q 318 1117 351 1087 q 285 1194 285 1148 q 315 1272 285 1240 q 394 1304 346 1304 q 475 1273 440 1304 q 509 1198 509 1241 m 460 1198 q 440 1241 460 1224 q 394 1258 421 1258 q 350 1240 366 1258 q 332 1194 332 1220 q 351 1151 332 1167 q 399 1134 371 1134 q 443 1152 426 1134 q 460 1198 460 1170 "},"ø":{"x_min":32.9375,"x_max":666.875,"ha":700,"o":"m 666 777 l 579 666 q 623 536 608 630 q 635 404 635 466 q 580 114 635 221 q 361 -22 511 -22 q 255 -5 304 -22 q 163 54 195 15 l 76 -65 l 32 -22 l 130 110 q 80 306 89 183 q 76 415 76 361 q 126 672 76 579 q 350 799 194 799 q 468 776 417 799 q 547 722 510 758 l 612 810 l 666 777 m 481 623 q 419 684 451 668 q 350 700 387 700 q 223 613 262 700 q 193 429 193 546 q 199 312 193 375 q 208 229 206 250 l 481 623 m 503 547 l 229 153 q 272 114 259 122 q 361 88 308 88 q 485 194 447 88 q 513 405 513 274 q 510 487 513 454 q 503 547 507 519 "},"â":{"x_min":43,"x_max":590.4375,"ha":612,"o":"m 590 0 q 531 -4 558 -4 q 448 18 474 -4 q 414 99 420 40 q 338 7 384 36 q 240 -22 292 -22 q 80 40 127 -22 q 43 186 43 90 q 74 332 43 279 q 163 404 102 379 l 338 471 q 382 490 368 480 q 403 536 403 507 l 403 612 q 382 672 403 650 q 295 700 356 700 q 199 668 223 700 q 174 558 174 636 l 76 558 q 74 582 74 569 q 73 600 73 594 q 135 749 73 697 q 295 799 198 799 q 495 715 445 799 q 525 559 525 667 l 525 153 q 540 102 525 114 q 590 88 555 88 l 590 0 m 398 229 l 398 417 q 317 375 364 397 q 230 335 269 353 q 173 280 190 317 q 157 200 157 243 q 180 104 157 136 q 264 73 202 73 q 346 103 310 73 q 398 229 398 146 m 514 868 l 382 868 l 305 989 l 217 868 l 98 868 l 240 1065 l 372 1065 q 446 958 394 1026 q 514 868 479 912 "},"}":{"x_min":11.578125,"x_max":371.125,"ha":380,"o":"m 277 410 q 251 366 257 388 q 246 306 246 344 l 246 48 q 232 -45 246 -16 q 187 -95 216 -76 q 115 -126 150 -120 q 11 -131 79 -131 q 110 -74 83 -109 q 135 23 135 -40 l 135 283 q 160 391 135 357 q 273 451 191 436 q 160 522 190 471 q 135 645 135 563 l 135 886 q 108 983 135 947 q 11 1039 82 1017 q 19 1039 15 1039 q 198 998 151 1039 q 246 837 246 955 l 246 608 q 252 536 246 559 q 290 488 258 511 q 326 469 305 477 q 371 454 347 459 q 318 440 337 448 q 277 410 297 430 "},"‰":{"x_min":43,"x_max":1510,"ha":1542,"o":"m 438 742 q 394 569 438 630 q 251 502 347 502 q 92 567 141 502 q 43 754 43 633 q 74 922 43 859 q 240 1017 123 1017 q 387 946 337 1017 q 438 742 438 875 m 809 1039 l 339 -22 l 262 -22 l 733 1039 l 809 1039 m 1312 0 q 1169 77 1221 0 q 1115 259 1115 155 q 1163 425 1115 358 q 1312 502 1217 502 q 1458 421 1403 502 q 1510 242 1510 346 q 1461 76 1510 144 q 1312 0 1407 0 m 1028 251 q 841 0 1028 0 q 695 77 742 0 q 655 262 655 144 q 694 431 655 372 q 841 502 739 502 q 982 445 936 502 q 1028 251 1028 387 m 339 753 q 323 869 339 830 q 240 929 300 929 q 158 870 182 929 q 142 753 142 828 q 161 642 142 682 q 240 590 186 590 q 339 753 339 590 m 1312 76 q 1382 132 1355 76 q 1407 257 1407 186 q 1384 373 1407 327 q 1312 425 1358 425 q 1306 425 1309 425 q 1244 373 1269 425 q 1218 239 1218 316 q 1241 123 1218 171 q 1312 76 1265 76 m 929 251 q 908 380 929 344 q 841 415 887 415 q 758 324 773 415 q 754 240 754 300 q 763 144 754 172 q 841 88 783 88 q 913 136 894 88 q 929 251 929 173 "},"Ä":{"x_min":11,"x_max":754,"ha":777,"o":"m 754 0 l 623 0 l 547 296 l 217 296 l 141 0 l 11 0 l 305 1039 l 470 1039 l 754 0 m 513 404 l 383 940 l 251 404 l 513 404 m 552 1084 l 432 1084 l 432 1226 l 552 1226 l 552 1084 m 345 1084 l 224 1084 l 224 1226 l 345 1226 l 345 1084 "},"¸":{"x_min":76,"x_max":389,"ha":460,"o":"m 295 0 l 217 -98 q 248 -93 231 -94 q 274 -91 265 -91 q 358 -120 327 -91 q 389 -192 389 -149 q 347 -280 389 -244 q 217 -322 300 -322 q 76 -295 155 -322 l 109 -229 q 208 -258 166 -258 q 259 -241 241 -258 q 276 -201 276 -226 q 259 -161 276 -178 q 208 -144 241 -144 q 163 -152 188 -144 l 130 -130 l 229 0 l 295 0 "},"a":{"x_min":43,"x_max":590.4375,"ha":612,"o":"m 590 0 q 531 -4 558 -4 q 448 18 474 -4 q 414 99 420 40 q 338 7 384 36 q 240 -22 292 -22 q 80 40 127 -22 q 43 186 43 90 q 74 332 43 279 q 163 404 102 379 l 338 471 q 382 490 368 480 q 403 536 403 507 l 403 612 q 382 672 403 650 q 295 700 356 700 q 199 668 223 700 q 174 558 174 636 l 76 558 q 74 582 74 569 q 73 600 73 594 q 135 749 73 697 q 295 799 198 799 q 495 715 445 799 q 525 559 525 667 l 525 153 q 540 102 525 114 q 590 88 555 88 l 590 0 m 398 229 l 398 417 q 317 375 364 397 q 230 335 269 353 q 173 280 190 317 q 157 200 157 243 q 180 104 157 136 q 264 73 202 73 q 346 103 310 73 q 398 229 398 146 "},"—":{"x_min":-12,"x_max":1039,"ha":1083,"o":"m 1039 393 l -12 393 l -12 492 l 1039 492 l 1039 393 "},"=":{"x_min":54,"x_max":635,"ha":700,"o":"m 635 437 l 54 437 l 54 547 l 635 547 l 635 437 m 635 164 l 54 164 l 54 274 l 635 274 l 635 164 "},"N":{"x_min":98,"x_max":743,"ha":853,"o":"m 743 0 l 546 0 l 218 951 l 218 0 l 98 0 l 98 1039 l 295 1039 l 623 98 l 623 1039 l 743 1039 l 743 0 "},"˚":{"x_min":20,"x_max":307,"ha":350,"o":"m 307 963 q 266 860 307 903 q 166 817 226 817 q 63 857 106 817 q 20 957 20 897 q 60 1059 20 1016 q 160 1103 100 1103 q 263 1062 220 1103 q 307 963 307 1022 m 245 963 q 220 1019 245 997 q 160 1042 195 1042 q 103 1016 126 1042 q 81 957 81 992 q 106 900 81 922 q 166 878 131 878 q 223 903 201 878 q 245 963 245 928 "},"ú":{"x_min":110,"x_max":590,"ha":694,"o":"m 590 0 l 480 0 l 480 99 q 388 1 442 31 q 295 -22 345 -22 q 110 186 110 -22 l 110 777 l 218 777 l 218 175 q 243 89 218 117 q 306 62 268 62 q 424 116 367 62 q 480 241 480 169 l 480 777 l 590 777 l 590 0 m 570 1050 l 395 852 l 296 852 l 417 1050 l 570 1050 "},"2":{"x_min":54.265625,"x_max":634.375,"ha":700,"o":"m 634 0 l 54 0 q 104 236 69 161 q 197 349 130 292 l 414 567 q 468 653 453 608 q 480 733 480 688 q 480 776 480 762 q 445 896 480 853 q 338 940 410 940 q 224 880 262 940 q 186 688 186 819 l 65 688 q 115 951 65 871 q 338 1050 177 1050 q 549 963 478 1050 q 612 754 612 887 q 578 580 612 650 q 502 480 556 534 q 439 419 482 461 q 316 305 376 358 q 222 212 247 245 q 186 110 186 163 l 634 110 l 634 0 "},"ü":{"x_min":110,"x_max":590,"ha":694,"o":"m 590 0 l 480 0 l 480 99 q 388 1 442 31 q 295 -22 345 -22 q 110 186 110 -22 l 110 777 l 218 777 l 218 175 q 243 89 218 117 q 306 62 268 62 q 424 116 367 62 q 480 241 480 169 l 480 777 l 590 777 l 590 0 m 511 903 l 391 903 l 391 1045 l 511 1045 l 511 903 m 304 903 l 183 903 l 183 1045 l 304 1045 l 304 903 "},"Z":{"x_min":33,"x_max":656,"ha":700,"o":"m 656 0 l 33 0 l 33 110 l 514 929 l 42 929 l 42 1039 l 646 1039 l 646 929 l 163 110 l 656 110 l 656 0 "},"u":{"x_min":110,"x_max":590,"ha":694,"o":"m 590 0 l 480 0 l 480 99 q 388 1 442 31 q 295 -22 345 -22 q 110 186 110 -22 l 110 777 l 218 777 l 218 175 q 243 89 218 117 q 306 62 268 62 q 424 116 367 62 q 480 241 480 169 l 480 777 l 590 777 l 590 0 "},"˜":{"x_min":-11,"x_max":460,"ha":460,"o":"m 460 1050 q 430 938 460 980 q 316 886 393 886 q 228 908 287 886 q 120 940 154 934 q 80 922 97 940 q 54 874 63 904 l -11 874 q 39 1001 -11 955 q 130 1039 80 1039 q 236 1012 167 1039 q 328 984 304 984 q 376 1003 358 984 q 393 1050 393 1022 l 460 1050 "},"Ó":{"x_min":76,"x_max":777,"ha":853,"o":"m 777 525 q 767 311 777 377 q 679 83 746 164 q 426 -22 591 -22 q 144 129 225 -22 q 76 536 76 257 q 83 738 76 687 q 169 958 102 879 q 426 1061 256 1061 q 653 976 569 1061 q 754 770 725 904 q 777 525 777 670 m 646 536 q 609 824 646 737 q 415 951 558 951 q 235 813 288 951 q 197 536 197 713 q 202 389 199 462 q 252 182 212 258 q 426 77 309 77 q 613 194 563 77 q 647 434 647 272 q 647 486 647 461 q 646 536 646 511 m 612 1293 l 437 1095 l 338 1095 l 459 1293 l 612 1293 "},"k":{"x_min":98,"x_max":612.640625,"ha":614,"o":"m 612 0 l 480 0 l 295 383 l 208 273 l 208 0 l 98 0 l 98 1050 l 208 1050 l 208 415 l 480 777 l 612 777 l 372 471 l 612 0 "},"Ù":{"x_min":110,"x_max":743,"ha":854,"o":"m 743 251 q 693 78 743 144 q 437 -22 618 -22 q 171 62 244 -22 q 110 295 110 133 l 110 1039 l 230 1039 l 230 296 q 282 131 230 179 q 426 88 329 88 q 577 144 530 88 q 623 317 623 200 l 623 1039 l 743 1039 l 743 251 m 490 1093 l 391 1093 l 206 1290 l 371 1290 l 490 1093 "},"Ÿ":{"x_min":11.1875,"x_max":742.65625,"ha":783,"o":"m 742 1039 l 449 393 l 449 0 l 328 0 l 328 393 l 11 1039 l 153 1039 l 383 524 l 612 1039 l 742 1039 m 545 1077 l 425 1077 l 425 1219 l 545 1219 l 545 1077 m 338 1077 l 217 1077 l 217 1219 l 338 1219 l 338 1077 "},"¢":{"x_min":87,"x_max":590.453125,"ha":700,"o":"m 590 251 q 500 20 575 76 q 284 -22 441 -22 l 240 -197 l 174 -197 l 217 0 q 121 129 156 26 q 87 415 87 230 q 163 675 102 591 q 345 756 224 756 q 367 756 356 756 q 392 754 384 754 l 437 908 l 502 908 l 459 733 q 550 656 518 711 q 580 532 580 602 q 579 502 580 512 l 480 502 q 472 587 480 555 q 437 634 462 618 l 305 65 q 349 59 326 59 q 447 106 410 59 q 481 226 481 152 q 480 251 481 243 l 590 251 m 372 666 q 344 670 351 670 q 256 627 290 670 q 208 426 208 566 q 208 369 208 397 q 206 313 206 340 q 215 179 206 226 q 251 109 223 131 l 372 666 "},"ß":{"x_min":98,"x_max":624,"ha":700,"o":"m 624 316 q 572 92 624 181 q 406 -10 512 -10 q 358 -4 380 -10 q 305 11 334 0 l 305 120 q 398 86 358 86 q 481 160 455 86 q 503 305 503 219 q 489 451 503 413 q 352 537 457 537 q 316 535 329 537 l 316 634 q 441 685 396 634 q 480 800 480 729 q 441 921 480 868 q 338 973 402 973 q 258 938 292 973 q 208 786 208 888 l 208 -139 l 98 -139 l 98 787 q 163 998 98 924 q 338 1072 228 1072 q 501 1023 436 1072 q 590 809 590 956 q 573 696 590 742 q 480 601 546 623 q 580 509 548 563 q 624 316 624 437 "},"é":{"x_min":60,"x_max":548.828125,"ha":617,"o":"m 548 376 l 174 376 q 174 346 174 359 q 174 323 174 332 q 193 158 174 210 q 312 72 225 72 q 415 131 383 72 q 440 256 440 178 l 543 256 q 487 60 543 134 q 309 -21 426 -21 q 130 66 191 -21 q 60 387 60 167 q 105 651 60 548 q 307 793 168 793 q 521 652 471 793 q 548 376 548 574 m 434 467 q 419 617 434 570 q 308 700 391 700 q 193 618 223 700 q 174 467 174 566 l 434 467 m 501 1043 l 326 846 l 227 846 l 348 1043 l 501 1043 "},"s":{"x_min":41.71875,"x_max":547,"ha":614,"o":"m 547 208 q 480 28 547 89 q 295 -33 413 -33 q 92 61 151 -33 q 54 229 54 124 l 163 229 q 181 114 163 147 q 284 66 208 66 q 396 104 355 66 q 437 197 437 143 q 341 315 437 274 q 217 361 335 318 q 98 443 148 386 q 41 583 41 508 q 43 601 43 595 q 112 749 52 697 q 284 799 170 799 q 446 735 378 799 q 513 558 513 669 l 403 558 q 373 665 395 636 q 284 700 347 700 q 192 670 222 700 q 163 590 163 641 q 234 476 163 511 q 359 428 252 468 q 506 339 466 386 q 547 208 547 291 "},"B":{"x_min":110,"x_max":711,"ha":777,"o":"m 711 305 q 640 83 711 159 q 404 0 563 0 l 110 0 l 110 1039 l 383 1039 q 589 984 511 1039 q 689 765 689 915 q 641 619 689 676 q 535 546 605 576 q 676 463 634 531 q 711 305 711 406 m 558 765 q 390 940 558 940 l 230 940 l 230 590 l 383 590 q 523 648 478 590 q 558 765 558 694 m 590 295 q 545 439 590 398 q 404 480 500 480 l 230 480 l 230 110 l 426 110 q 541 148 500 110 q 590 295 590 194 "},"…":{"x_min":164,"x_max":1214,"ha":1389,"o":"m 1214 0 l 1083 0 l 1083 142 l 1214 142 l 1214 0 m 754 0 l 623 0 l 623 142 l 754 142 l 754 0 m 296 0 l 164 0 l 164 142 l 296 142 l 296 0 "},"?":{"x_min":65.453125,"x_max":624,"ha":700,"o":"m 624 776 q 562 581 624 666 q 459 459 511 520 q 401 389 430 423 q 381 308 381 354 q 383 285 381 293 l 383 240 l 251 240 l 251 305 q 312 468 251 385 q 429 608 370 537 q 492 765 492 691 q 462 890 492 847 q 350 940 428 940 q 215 866 250 940 q 186 710 198 830 l 65 710 q 131 954 65 865 q 338 1050 204 1050 q 555 974 483 1050 q 624 776 624 905 m 383 0 l 251 0 l 251 142 l 383 142 l 383 0 "},"H":{"x_min":98,"x_max":722,"ha":846,"o":"m 722 0 l 612 0 l 612 503 l 208 503 l 208 0 l 98 0 l 98 1039 l 208 1039 l 208 613 l 612 613 l 612 1039 l 722 1039 l 722 0 "},"î":{"x_min":-54.296875,"x_max":361.703125,"ha":306,"o":"m 208 0 l 98 0 l 98 777 l 208 777 l 208 0 m 361 874 l 229 874 l 153 995 l 65 874 l -54 874 l 87 1072 l 219 1072 q 293 965 242 1033 q 361 874 327 919 "},"c":{"x_min":54,"x_max":558.125,"ha":612,"o":"m 558 274 q 521 93 558 165 q 327 -22 463 -22 q 109 87 174 -22 q 54 372 54 182 q 99 668 54 568 q 327 810 164 810 q 491 727 424 810 q 558 536 558 646 l 448 536 q 421 647 448 604 q 327 700 390 700 q 198 596 234 700 q 175 411 175 527 q 175 372 175 383 q 192 179 175 235 q 327 77 226 77 q 420 128 391 77 q 448 274 448 179 l 558 274 "},"¶":{"x_min":1.359375,"x_max":547,"ha":612,"o":"m 547 -163 l 437 -163 l 437 940 l 328 940 l 328 -163 l 218 -163 l 218 502 q 58 595 113 518 q 1 770 1 672 q 55 945 1 872 q 218 1039 115 1026 l 547 1039 l 547 -163 "},"•":{"x_min":10,"x_max":449,"ha":350,"o":"m 240 722 q 397 658 340 722 q 449 515 449 601 q 393 365 449 427 q 229 295 332 295 q 65 362 126 295 q 10 512 10 423 q 65 656 10 599 q 240 722 128 722 "},"¥":{"x_min":-33.234375,"x_max":722.390625,"ha":700,"o":"m 722 1039 l 393 392 l 393 372 l 590 372 l 590 305 l 393 305 l 393 197 l 590 197 l 590 130 l 393 130 l 393 0 l 285 0 l 285 130 l 87 130 l 87 197 l 285 197 l 285 305 l 87 305 l 87 372 l 285 372 l 285 392 l -33 1039 l 109 1039 l 350 514 l 579 1039 l 722 1039 "},"(":{"x_min":98,"x_max":404.359375,"ha":460,"o":"m 404 -295 l 316 -295 q 183 -52 245 -211 q 98 372 98 162 q 153 730 98 561 q 316 1050 207 899 l 393 1050 q 254 717 290 859 q 218 383 218 576 q 273 -22 218 159 q 404 -295 319 -173 "},"U":{"x_min":110,"x_max":743,"ha":854,"o":"m 743 251 q 693 78 743 144 q 437 -22 618 -22 q 171 62 244 -22 q 110 295 110 133 l 110 1039 l 230 1039 l 230 296 q 282 131 230 179 q 426 88 329 88 q 577 144 530 88 q 623 317 623 200 l 623 1039 l 743 1039 l 743 251 "},"Ñ":{"x_min":98,"x_max":743,"ha":853,"o":"m 743 0 l 546 0 l 218 951 l 218 0 l 98 0 l 98 1039 l 295 1039 l 623 98 l 623 1039 l 743 1039 l 743 0 m 675 1272 q 646 1160 675 1202 q 532 1108 608 1108 q 443 1130 503 1108 q 336 1162 369 1156 q 296 1144 312 1162 q 269 1096 279 1126 l 204 1096 q 254 1223 204 1177 q 346 1261 296 1261 q 451 1234 382 1261 q 543 1206 519 1206 q 591 1226 573 1206 q 608 1272 608 1244 l 675 1272 "},"F":{"x_min":98,"x_max":589.96875,"ha":612,"o":"m 589 929 l 218 929 l 218 602 l 567 602 l 567 492 l 218 492 l 218 0 l 98 0 l 98 1039 l 589 1039 l 589 929 "},"­":{"x_min":54,"x_max":552,"ha":611,"o":"m 552 337 l 54 337 l 54 447 l 552 447 l 552 337 "},":":{"x_min":98,"x_max":229,"ha":350,"o":"m 229 623 l 98 623 l 98 765 l 229 765 l 229 623 m 229 0 l 98 0 l 98 142 l 229 142 l 229 0 "},"Û":{"x_min":110,"x_max":743,"ha":854,"o":"m 743 251 q 693 78 743 144 q 437 -22 618 -22 q 171 62 244 -22 q 110 295 110 133 l 110 1039 l 230 1039 l 230 296 q 282 131 230 179 q 426 88 329 88 q 577 144 530 88 q 623 317 623 200 l 623 1039 l 743 1039 l 743 251 m 639 1090 l 507 1090 l 430 1211 l 343 1090 l 223 1090 l 365 1287 l 497 1287 q 571 1180 519 1248 q 639 1090 604 1134 "},"*":{"x_min":130.578125,"x_max":568.078125,"ha":700,"o":"m 568 852 l 404 798 l 514 666 l 448 623 l 349 754 l 239 623 l 185 666 l 295 798 l 130 852 l 163 917 l 305 863 l 305 1039 l 393 1039 l 393 863 l 547 917 l 568 852 "},"†":{"x_min":54.265625,"x_max":677.953125,"ha":700,"o":"m 677 624 l 416 624 l 416 -240 l 296 -240 l 296 624 l 54 624 l 54 734 l 296 734 l 296 1027 l 416 1027 l 416 734 l 677 734 l 677 624 "},"∕":{"x_min":165,"x_max":764,"ha":812,"o":"m 764 876 l 237 -21 l 165 -21 l 690 876 l 764 876 "},"°":{"x_min":20,"x_max":307,"ha":350,"o":"m 307 963 q 266 860 307 903 q 166 817 226 817 q 63 857 106 817 q 20 957 20 897 q 60 1059 20 1016 q 160 1103 100 1103 q 263 1062 220 1103 q 307 963 307 1022 m 245 963 q 220 1019 245 997 q 160 1042 195 1042 q 103 1016 126 1042 q 81 957 81 992 q 106 900 81 922 q 166 878 131 878 q 223 903 201 878 q 245 963 245 928 "},"V":{"x_min":33,"x_max":766,"ha":777,"o":"m 766 1039 l 460 0 l 316 0 l 33 1039 l 152 1039 l 393 76 l 646 1039 l 766 1039 "},"å":{"x_min":43,"x_max":590.4375,"ha":612,"o":"m 590 0 q 531 -4 558 -4 q 448 18 474 -4 q 414 99 420 40 q 338 7 384 36 q 240 -22 292 -22 q 80 40 127 -22 q 43 186 43 90 q 74 332 43 279 q 163 404 102 379 l 338 471 q 382 490 368 480 q 403 536 403 507 l 403 612 q 382 672 403 650 q 295 700 356 700 q 199 668 223 700 q 174 558 174 636 l 76 558 q 74 582 74 569 q 73 600 73 594 q 135 749 73 697 q 295 799 198 799 q 495 715 445 799 q 525 559 525 667 l 525 153 q 540 102 525 114 q 590 88 555 88 l 590 0 m 398 229 l 398 417 q 317 375 364 397 q 230 335 269 353 q 173 280 190 317 q 157 200 157 243 q 180 104 157 136 q 264 73 202 73 q 346 103 310 73 q 398 229 398 146 m 412 968 q 381 890 412 922 q 302 857 349 857 q 222 888 255 857 q 187 964 187 919 q 219 1041 187 1008 q 298 1075 251 1075 q 378 1044 345 1075 q 412 968 412 1013 m 364 968 q 345 1011 364 994 q 298 1027 326 1027 q 252 1009 269 1027 q 236 964 236 991 q 255 920 236 937 q 302 904 274 904 q 347 923 330 904 q 364 968 364 941 "}," ":{"x_min":0,"x_max":0,"ha":694},"0":{"x_min":65,"x_max":636,"ha":700,"o":"m 634 514 q 634 479 634 495 q 636 447 634 462 q 592 153 636 260 q 338 -22 522 -22 q 112 144 177 -22 q 65 491 65 265 q 135 908 65 776 q 349 1039 206 1039 q 555 954 487 1039 q 626 752 609 886 q 634 514 634 683 m 514 514 q 492 804 514 730 q 338 929 457 929 q 219 822 251 920 q 186 503 186 723 q 201 225 186 290 q 349 88 233 88 q 490 207 452 88 q 515 434 515 285 q 515 475 515 455 q 514 514 514 494 "},"”":{"x_min":87,"x_max":471,"ha":536,"o":"m 471 908 q 423 745 471 804 q 327 689 385 698 l 327 754 q 384 811 370 769 q 392 886 392 836 l 327 886 l 327 1039 l 471 1039 l 471 908 m 229 908 q 183 745 229 802 q 87 689 145 698 l 87 754 q 144 811 130 769 q 152 886 152 836 l 87 886 l 87 1039 l 229 1039 l 229 908 "},"¾":{"x_min":83.390625,"x_max":815.421875,"ha":861,"o":"m 815 125 l 771 125 l 771 -6 l 711 -6 l 711 125 l 519 125 l 519 185 l 711 518 l 771 518 l 771 185 l 815 185 l 815 125 m 711 185 l 711 419 l 573 185 l 711 185 m 368 641 q 219 478 368 478 q 108 529 141 478 q 83 642 83 568 l 143 642 q 151 573 143 592 q 219 534 168 534 q 279 550 259 534 q 307 626 307 574 q 265 718 307 697 q 186 729 242 729 l 186 790 q 268 809 245 790 q 291 871 291 827 q 218 959 291 959 q 164 929 181 959 q 148 849 148 899 l 94 849 q 125 970 94 926 q 225 1014 154 1014 q 319 977 281 1014 q 357 883 357 941 q 347 822 357 844 q 285 767 330 783 q 343 730 324 752 q 368 641 368 699 m 764 868 l 236 -28 l 164 -28 l 690 868 l 764 868 "},"@":{"x_min":50,"x_max":1061,"ha":1111,"o":"m 1061 598 q 1038 466 1061 532 q 976 343 1016 400 q 872 235 927 274 q 732 190 805 190 q 658 208 691 190 q 610 264 623 226 q 534 212 580 232 q 444 193 488 193 q 304 254 357 193 q 250 402 250 314 q 345 684 250 554 q 597 828 451 828 q 691 804 648 828 q 755 734 734 778 l 775 800 l 870 800 l 727 376 q 716 340 723 364 q 709 304 709 315 q 751 264 709 264 q 845 301 794 264 q 919 376 890 333 q 990 604 990 477 q 863 873 990 767 q 577 973 744 973 q 254 835 386 973 q 121 505 121 697 q 257 182 121 317 q 580 48 393 48 q 790 99 690 48 q 951 242 888 150 l 1034 242 q 844 51 969 122 q 580 -21 719 -21 q 204 135 357 -21 q 50 515 50 291 q 206 888 50 734 q 581 1042 362 1042 q 911 921 770 1042 q 1061 598 1061 791 m 697 642 q 670 714 697 684 q 598 744 642 744 q 422 624 497 744 q 357 410 357 520 q 386 317 357 356 q 465 277 415 277 q 561 319 515 277 q 626 410 598 354 q 676 527 654 464 q 697 642 697 591 "},"ö":{"x_min":65,"x_max":624,"ha":700,"o":"m 624 393 q 565 90 624 196 q 349 -33 497 -33 q 117 100 187 -33 q 65 383 65 201 q 116 664 65 564 q 349 799 185 799 q 561 688 493 799 q 624 393 624 586 m 503 383 q 479 590 503 522 q 338 700 441 700 q 205 591 238 700 q 186 393 186 529 q 209 182 186 249 q 349 77 247 77 q 479 189 441 77 q 503 383 503 261 m 504 890 l 384 890 l 384 1032 l 504 1032 l 504 890 m 297 890 l 176 890 l 176 1032 l 297 1032 l 297 890 "},"i":{"x_min":98,"x_max":208,"ha":306,"o":"m 208 908 l 98 908 l 98 1050 l 208 1050 l 208 908 m 208 0 l 98 0 l 98 777 l 208 777 l 208 0 "},"Õ":{"x_min":76,"x_max":777,"ha":853,"o":"m 777 525 q 767 311 777 377 q 679 83 746 164 q 426 -22 591 -22 q 144 129 225 -22 q 76 536 76 257 q 83 738 76 687 q 169 958 102 879 q 426 1061 256 1061 q 653 976 569 1061 q 754 770 725 904 q 777 525 777 670 m 646 536 q 609 824 646 737 q 415 951 558 951 q 235 813 288 951 q 197 536 197 713 q 202 389 199 462 q 252 182 212 258 q 426 77 309 77 q 613 194 563 77 q 647 434 647 272 q 647 486 647 461 q 646 536 646 511 m 661 1265 q 632 1154 661 1195 q 518 1101 594 1101 q 429 1123 489 1101 q 322 1155 355 1150 q 282 1137 298 1155 q 255 1090 265 1119 l 190 1090 q 240 1216 190 1170 q 332 1254 282 1254 q 437 1227 368 1254 q 529 1200 505 1200 q 578 1219 560 1200 q 594 1265 594 1237 l 661 1265 "},"þ":{"x_min":98,"x_max":624,"ha":700,"o":"m 624 415 q 564 80 624 187 q 372 -33 500 -33 q 265 0 308 -33 q 208 66 245 15 l 208 -274 l 98 -274 l 98 929 l 197 929 l 197 676 q 276 760 229 734 q 383 787 323 787 q 565 676 501 787 q 624 415 624 576 m 503 372 q 481 567 503 489 q 361 699 447 699 q 231 585 266 699 q 208 372 208 509 q 230 173 208 241 q 361 66 266 66 q 476 177 438 66 q 503 372 503 258 "},"]":{"x_min":65.46875,"x_max":316,"ha":460,"o":"m 316 -285 l 65 -285 l 65 -197 l 208 -197 l 208 951 l 76 951 l 76 1039 l 316 1039 l 316 -285 "},"m":{"x_min":110,"x_max":974,"ha":1083,"o":"m 974 0 l 864 0 l 864 590 q 864 611 864 604 q 850 670 864 652 q 765 700 827 700 q 646 646 689 700 q 602 491 602 590 l 602 0 l 492 0 l 492 547 q 469 664 492 627 q 383 700 447 700 q 268 650 312 700 q 218 491 218 594 l 218 0 l 110 0 l 110 777 l 218 777 l 218 677 q 298 769 234 735 q 404 799 352 799 q 509 768 461 799 q 590 677 558 736 q 799 799 661 799 q 956 719 918 799 q 974 590 974 680 l 974 0 "},"8":{"x_min":65,"x_max":646,"ha":700,"o":"m 646 316 q 590 99 646 187 q 360 -22 515 -22 q 141 57 217 -22 q 65 295 65 134 q 109 464 65 390 q 262 568 163 554 q 156 621 196 579 q 98 798 98 682 q 156 960 98 891 q 372 1050 231 1050 q 575 962 508 1050 q 624 809 624 898 q 597 677 624 729 q 471 568 561 607 q 582 500 526 568 q 646 316 646 422 m 492 776 q 469 890 492 855 q 372 940 443 931 q 255 895 287 940 q 228 776 228 859 q 227 754 227 761 q 274 650 227 684 q 361 624 311 624 q 457 664 420 624 q 492 776 492 703 m 514 316 q 488 440 514 390 q 372 514 452 514 q 241 457 285 514 q 197 305 197 400 q 195 277 195 295 q 238 141 195 195 q 349 87 281 87 q 366 86 360 86 q 476 149 437 86 q 514 316 514 212 "},"ž":{"x_min":33,"x_max":514,"ha":569,"o":"m 514 0 l 33 0 l 33 98 l 383 678 l 54 678 l 54 777 l 514 777 l 514 678 l 152 110 l 514 110 l 514 0 m 493 1029 q 405 911 440 958 q 351 832 365 855 l 219 832 l 77 1029 l 197 1029 l 284 908 l 361 1029 l 493 1029 "},"R":{"x_min":121,"x_max":787.421875,"ha":853,"o":"m 787 0 l 645 0 q 611 212 617 52 q 448 460 602 460 l 241 460 l 241 0 l 121 0 l 121 1039 l 426 1039 q 670 961 595 1039 q 743 776 732 897 q 684 604 743 675 q 546 525 624 533 q 635 501 632 502 q 710 393 696 471 q 732 169 720 280 q 784 33 750 33 q 787 33 786 33 l 787 0 m 611 765 q 554 891 603 852 q 404 929 505 929 l 241 929 l 241 568 l 426 568 q 564 613 516 568 q 613 740 613 659 q 611 765 613 756 "},"á":{"x_min":43,"x_max":590.4375,"ha":612,"o":"m 590 0 q 531 -4 558 -4 q 448 18 474 -4 q 414 99 420 40 q 338 7 384 36 q 240 -22 292 -22 q 80 40 127 -22 q 43 186 43 90 q 74 332 43 279 q 163 404 102 379 l 338 471 q 382 490 368 480 q 403 536 403 507 l 403 612 q 382 672 403 650 q 295 700 356 700 q 199 668 223 700 q 174 558 174 636 l 76 558 q 74 582 74 569 q 73 600 73 594 q 135 749 73 697 q 295 799 198 799 q 495 715 445 799 q 525 559 525 667 l 525 153 q 540 102 525 114 q 590 88 555 88 l 590 0 m 398 229 l 398 417 q 317 375 364 397 q 230 335 269 353 q 173 280 190 317 q 157 200 157 243 q 180 104 157 136 q 264 73 202 73 q 346 103 310 73 q 398 229 398 146 m 487 1043 l 312 846 l 213 846 l 334 1043 l 487 1043 "},"×":{"x_min":116,"x_max":604,"ha":700,"o":"m 601 512 l 428 341 l 604 166 l 535 98 l 360 272 l 189 101 l 120 170 l 291 341 l 116 516 l 185 584 l 359 410 l 530 581 l 601 512 "},"o":{"x_min":65,"x_max":624,"ha":700,"o":"m 624 393 q 565 90 624 196 q 349 -33 497 -33 q 117 100 187 -33 q 65 383 65 201 q 116 664 65 564 q 349 799 185 799 q 561 688 493 799 q 624 393 624 586 m 503 383 q 479 590 503 522 q 338 700 441 700 q 205 591 238 700 q 186 393 186 529 q 209 182 186 249 q 349 77 247 77 q 479 189 441 77 q 503 383 503 261 "},"5":{"x_min":65.453125,"x_max":624,"ha":700,"o":"m 624 372 q 566 105 624 204 q 328 -22 493 -22 q 122 77 191 -22 q 65 284 65 159 l 186 284 q 222 144 186 190 q 338 99 257 99 q 469 180 426 99 q 503 327 503 243 q 471 508 503 443 q 338 590 430 590 q 243 563 281 590 q 186 491 204 537 l 76 491 l 141 1039 l 590 1039 l 590 918 l 240 918 l 197 623 q 269 681 227 662 q 361 700 311 700 q 546 622 476 700 q 624 372 624 536 "},"õ":{"x_min":65,"x_max":624,"ha":700,"o":"m 624 393 q 565 90 624 196 q 349 -33 497 -33 q 117 100 187 -33 q 65 383 65 201 q 116 664 65 564 q 349 799 185 799 q 561 688 493 799 q 624 393 624 586 m 503 383 q 479 590 503 522 q 338 700 441 700 q 205 591 238 700 q 186 393 186 529 q 209 182 186 249 q 349 77 247 77 q 479 189 441 77 q 503 383 503 261 m 599 1050 q 569 938 599 980 q 455 886 532 886 q 367 908 426 886 q 259 940 293 934 q 219 922 236 940 q 193 874 202 904 l 128 874 q 178 1001 128 955 q 269 1039 219 1039 q 375 1012 306 1039 q 467 984 443 984 q 515 1003 497 984 q 532 1050 532 1022 l 599 1050 "},"7":{"x_min":76,"x_max":667,"ha":700,"o":"m 667 918 q 511 690 583 815 q 367 373 419 532 q 305 0 305 180 l 174 0 q 261 430 174 213 q 433 750 323 587 q 558 918 495 833 l 76 918 l 76 1028 l 667 1028 l 667 918 "},"K":{"x_min":110,"x_max":765.453125,"ha":778,"o":"m 765 0 l 612 0 l 339 491 l 230 361 l 230 0 l 110 0 l 110 1039 l 230 1039 l 230 514 l 601 1039 l 754 1039 l 415 601 l 765 0 "},",":{"x_min":110,"x_max":252,"ha":350,"o":"m 252 11 q 206 -151 252 -92 q 110 -208 168 -198 l 110 -141 q 167 -84 153 -127 q 175 -11 175 -59 l 110 -11 l 110 142 l 252 142 l 252 11 "},"d":{"x_min":65,"x_max":591,"ha":701,"o":"m 591 0 l 480 0 l 480 98 q 414 14 454 43 q 295 -22 365 -22 q 123 79 180 -22 q 65 379 65 180 q 117 696 65 597 q 305 810 178 810 q 471 711 404 810 l 471 1061 l 591 1061 l 591 0 m 480 392 q 454 593 480 512 q 327 711 415 711 q 187 523 219 711 q 175 372 175 449 q 196 187 175 248 q 316 76 227 91 q 332 74 327 74 q 441 151 402 74 q 480 392 480 227 "},"¨":{"x_min":65,"x_max":393,"ha":460,"o":"m 393 897 l 273 897 l 273 1039 l 393 1039 l 393 897 m 186 897 l 65 897 l 65 1039 l 186 1039 l 186 897 "},"Ô":{"x_min":76,"x_max":777,"ha":853,"o":"m 777 525 q 767 311 777 377 q 679 83 746 164 q 426 -22 591 -22 q 144 129 225 -22 q 76 536 76 257 q 83 738 76 687 q 169 958 102 879 q 426 1061 256 1061 q 653 976 569 1061 q 754 770 725 904 q 777 525 777 670 m 646 536 q 609 824 646 737 q 415 951 558 951 q 235 813 288 951 q 197 536 197 713 q 202 389 199 462 q 252 182 212 258 q 426 77 309 77 q 613 194 563 77 q 647 434 647 272 q 647 486 647 461 q 646 536 646 511 m 632 1090 l 500 1090 l 423 1211 l 335 1090 l 216 1090 l 358 1287 l 490 1287 q 564 1180 512 1248 q 632 1090 597 1134 "},"E":{"x_min":98,"x_max":634.890625,"ha":700,"o":"m 634 929 l 218 929 l 218 602 l 601 602 l 601 492 l 218 492 l 218 110 l 623 110 l 623 0 l 98 0 l 98 1039 l 634 1039 l 634 929 "},"Y":{"x_min":11.1875,"x_max":742.65625,"ha":783,"o":"m 742 1039 l 449 393 l 449 0 l 328 0 l 328 393 l 11 1039 l 153 1039 l 383 524 l 612 1039 l 742 1039 "},"\"":{"x_min":54,"x_max":296,"ha":350,"o":"m 296 700 l 218 700 l 218 1017 l 296 1017 l 296 700 m 130 700 l 54 700 l 54 1017 l 130 1017 l 130 700 "},"‹":{"x_min":87,"x_max":317,"ha":383,"o":"m 317 152 l 87 383 l 87 470 l 305 689 l 305 579 l 152 426 l 317 262 l 317 152 "},"ê":{"x_min":60,"x_max":548.828125,"ha":617,"o":"m 548 376 l 174 376 q 174 346 174 359 q 174 323 174 332 q 193 158 174 210 q 312 72 225 72 q 415 131 383 72 q 440 256 440 178 l 543 256 q 487 60 543 134 q 309 -21 426 -21 q 130 66 191 -21 q 60 387 60 167 q 105 651 60 548 q 307 793 168 793 q 521 652 471 793 q 548 376 548 574 m 434 467 q 419 617 434 570 q 308 700 391 700 q 193 618 223 700 q 174 467 174 566 l 434 467 m 542 874 l 409 874 l 333 995 l 245 874 l 126 874 l 267 1072 l 400 1072 q 474 965 422 1033 q 542 874 507 919 "},"Ï":{"x_min":16.515625,"x_max":344.515625,"ha":383,"o":"m 241 0 l 121 0 l 121 1039 l 241 1039 l 241 0 m 344 1084 l 224 1084 l 224 1226 l 344 1226 l 344 1084 m 137 1084 l 16 1084 l 16 1226 l 137 1226 l 137 1084 "},"„":{"x_min":66,"x_max":450,"ha":536,"o":"m 450 33 q 402 -129 450 -70 q 306 -186 364 -176 l 306 -120 q 363 -63 349 -105 q 371 11 371 -39 l 306 11 l 306 164 l 450 164 l 450 33 m 208 33 q 162 -129 208 -72 q 66 -186 124 -176 l 66 -120 q 123 -63 109 -105 q 131 11 131 -39 l 66 11 l 66 164 l 208 164 l 208 33 "},"Â":{"x_min":11,"x_max":754,"ha":777,"o":"m 754 0 l 623 0 l 547 296 l 217 296 l 141 0 l 11 0 l 305 1039 l 470 1039 l 754 0 m 513 404 l 383 940 l 251 404 l 513 404 m 597 1069 l 465 1069 l 389 1190 l 301 1069 l 181 1069 l 323 1266 l 455 1266 q 529 1159 478 1227 q 597 1069 563 1113 "},"Í":{"x_min":109.3125,"x_max":383.3125,"ha":383,"o":"m 241 0 l 121 0 l 121 1039 l 241 1039 l 241 0 m 383 1279 l 208 1082 l 109 1082 l 230 1279 l 383 1279 "},"´":{"x_min":130,"x_max":404,"ha":460,"o":"m 404 1050 l 228 852 l 130 852 l 250 1050 l 404 1050 "},"ì":{"x_min":-71.09375,"x_max":212.90625,"ha":306,"o":"m 208 0 l 98 0 l 98 777 l 208 777 l 208 0 m 212 870 l 114 870 l -71 1067 l 93 1067 l 212 870 "},"±":{"x_min":43.078125,"x_max":666.765625,"ha":700,"o":"m 652 526 l 413 526 l 413 264 l 299 264 l 299 526 l 56 526 l 56 651 l 288 651 l 288 913 l 413 913 l 413 651 l 652 651 l 652 526 m 666 89 l 43 89 l 43 202 l 666 202 l 666 89 "},"Ú":{"x_min":110,"x_max":743,"ha":854,"o":"m 743 251 q 693 78 743 144 q 437 -22 618 -22 q 171 62 244 -22 q 110 295 110 133 l 110 1039 l 230 1039 l 230 296 q 282 131 230 179 q 426 88 329 88 q 577 144 530 88 q 623 317 623 200 l 623 1039 l 743 1039 l 743 251 m 619 1279 l 444 1082 l 345 1082 l 466 1279 l 619 1279 "},"|":{"x_min":129,"x_max":218,"ha":347,"o":"m 218 0 l 129 0 l 129 1042 l 218 1042 l 218 0 "},"§":{"x_min":46,"x_max":650,"ha":700,"o":"m 601 480 q 638 421 626 452 q 650 356 650 391 q 598 212 650 279 q 491 130 547 142 q 569 48 541 98 q 596 -61 596 -3 q 536 -215 596 -154 q 349 -285 468 -285 q 140 -204 208 -285 q 86 -48 86 -140 q 87 -22 86 -30 l 208 -22 q 207 -46 207 -30 q 254 -157 207 -118 q 355 -192 295 -192 q 444 -167 408 -192 q 480 -99 480 -142 q 483 -72 483 -79 q 287 139 483 17 q 130 250 165 216 q 66 325 87 284 q 46 413 46 367 q 89 536 46 480 q 208 623 132 593 q 137 706 163 650 q 110 823 110 760 q 162 972 110 913 q 338 1039 223 1039 q 505 987 438 1039 q 590 787 590 922 l 470 787 q 472 810 472 795 q 435 900 472 868 q 349 933 399 933 q 256 900 295 933 q 218 809 218 867 q 284 709 218 760 q 437 609 297 699 q 601 480 548 538 m 437 174 q 510 251 487 213 q 533 323 533 288 q 387 500 533 405 q 262 579 324 538 q 186 501 211 538 q 161 432 161 463 q 295 270 161 362 q 437 174 366 222 "},"Ý":{"x_min":11.1875,"x_max":742.65625,"ha":783,"o":"m 742 1039 l 449 393 l 449 0 l 328 0 l 328 393 l 11 1039 l 153 1039 l 383 524 l 612 1039 l 742 1039 m 577 1230 l 402 1033 l 303 1033 l 424 1230 l 577 1230 "},"b":{"x_min":98,"x_max":635,"ha":701,"o":"m 635 437 q 576 91 635 205 q 393 -22 516 -22 q 287 4 333 -22 q 208 88 240 31 l 208 0 l 98 0 l 98 1061 l 218 1061 l 218 711 q 297 784 249 758 q 393 810 343 810 q 575 715 514 810 q 635 437 635 619 m 514 415 q 480 624 514 547 q 372 711 443 711 q 249 627 290 711 q 208 372 208 544 q 248 184 208 272 q 372 77 297 77 q 500 221 469 77 q 514 415 514 286 "},"q":{"x_min":65,"x_max":579,"ha":700,"o":"m 579 -262 l 471 -262 l 471 76 q 387 -5 431 17 q 295 -22 352 -22 q 110 117 170 -22 q 65 372 65 222 q 106 641 65 535 q 305 799 167 799 q 401 773 355 799 q 471 700 447 747 l 471 777 l 579 777 l 579 -262 m 471 404 q 449 589 471 522 q 327 700 415 700 q 203 583 235 700 q 186 393 186 518 q 220 143 186 221 q 327 66 255 66 q 436 149 401 66 q 471 404 471 232 "},"Ö":{"x_min":76,"x_max":777,"ha":853,"o":"m 777 525 q 767 311 777 377 q 679 83 746 164 q 426 -22 591 -22 q 144 129 225 -22 q 76 536 76 257 q 83 738 76 687 q 169 958 102 879 q 426 1061 256 1061 q 653 976 569 1061 q 754 770 725 904 q 777 525 777 670 m 646 536 q 609 824 646 737 q 415 951 558 951 q 235 813 288 951 q 197 536 197 713 q 202 389 199 462 q 252 182 212 258 q 426 77 309 77 q 613 194 563 77 q 647 434 647 272 q 647 486 647 461 q 646 536 646 511 m 587 1098 l 467 1098 l 467 1240 l 587 1240 l 587 1098 m 380 1098 l 259 1098 l 259 1240 l 380 1240 l 380 1098 "},"z":{"x_min":33,"x_max":514,"ha":536,"o":"m 514 0 l 33 0 l 33 98 l 383 678 l 54 678 l 54 777 l 514 777 l 514 678 l 152 110 l 514 110 l 514 0 "},"™":{"x_min":-11.1875,"x_max":996,"ha":1039,"o":"m 996 448 l 908 448 l 908 951 l 743 437 l 700 437 l 548 940 l 548 437 l 460 437 l 460 1028 l 590 1028 l 722 612 l 863 1028 l 996 1028 l 996 448 m 383 940 l 241 940 l 241 437 l 142 437 l 142 940 l -11 940 l -11 1028 l 383 1028 l 383 940 "},"ã":{"x_min":43,"x_max":590.4375,"ha":612,"o":"m 590 0 q 531 -4 558 -4 q 448 18 474 -4 q 414 99 420 40 q 338 7 384 36 q 240 -22 292 -22 q 80 40 127 -22 q 43 186 43 90 q 74 332 43 279 q 163 404 102 379 l 338 471 q 382 490 368 480 q 403 536 403 507 l 403 612 q 382 672 403 650 q 295 700 356 700 q 199 668 223 700 q 174 558 174 636 l 76 558 q 74 582 74 569 q 73 600 73 594 q 135 749 73 697 q 295 799 198 799 q 495 715 445 799 q 525 559 525 667 l 525 153 q 540 102 525 114 q 590 88 555 88 l 590 0 m 398 229 l 398 417 q 317 375 364 397 q 230 335 269 353 q 173 280 190 317 q 157 200 157 243 q 180 104 157 136 q 264 73 202 73 q 346 103 310 73 q 398 229 398 146 m 564 1050 q 534 938 564 980 q 421 886 497 886 q 332 908 391 886 q 225 940 258 934 q 184 922 201 940 q 158 874 168 904 l 93 874 q 143 1001 93 955 q 234 1039 184 1039 q 340 1012 271 1039 q 432 984 408 984 q 480 1003 462 984 q 497 1050 497 1022 l 564 1050 "},"æ":{"x_min":33,"x_max":897.125,"ha":929,"o":"m 897 372 l 525 372 q 534 175 525 216 q 645 77 558 77 q 747 132 713 77 q 776 262 776 180 l 885 262 q 837 54 885 120 q 655 -22 781 -22 q 533 10 584 -22 q 448 99 481 40 q 381 18 429 50 q 240 -22 323 -22 q 91 28 145 -22 q 33 186 33 82 q 129 385 33 319 q 392 502 261 444 q 410 573 410 527 q 387 658 410 626 q 295 700 356 700 q 211 666 239 700 q 175 558 183 633 l 65 558 q 123 743 65 676 q 295 810 182 810 q 406 782 359 810 q 470 711 452 754 q 576 793 522 770 q 666 810 616 810 q 867 652 816 810 q 897 372 897 562 m 776 471 q 756 618 776 566 q 645 700 726 700 q 544 626 572 700 q 525 471 525 575 l 776 471 m 404 208 l 404 415 q 247 330 324 372 q 164 186 164 270 q 183 115 164 143 q 262 77 209 77 q 363 111 323 77 q 404 208 404 144 "},"®":{"x_min":12,"x_max":1111,"ha":1115,"o":"m 1050 273 q 823 45 960 124 q 551 -28 695 -28 q 260 58 393 -28 q 53 305 121 148 q 12 523 12 413 q 146 879 12 732 q 536 1061 290 1036 q 951 897 784 1061 q 1111 519 1111 740 q 1097 395 1111 452 q 1050 273 1083 337 m 995 372 q 1015 450 1009 412 q 1021 526 1021 487 q 873 856 1021 718 q 574 986 736 986 q 547 984 555 986 q 206 815 323 956 q 105 520 105 691 q 123 389 105 451 q 174 273 141 326 q 348 111 242 167 q 560 60 445 60 q 824 142 705 60 q 995 372 950 228 m 830 217 l 743 217 l 568 502 l 438 502 l 438 217 l 350 217 l 350 831 l 623 831 q 789 776 727 831 q 844 656 844 726 q 798 550 844 593 q 655 502 746 502 l 830 217 m 635 568 q 727 595 694 568 q 761 662 761 623 q 726 731 761 702 q 623 765 686 765 l 438 765 l 438 568 l 635 568 "},"É":{"x_min":98,"x_max":634.890625,"ha":700,"o":"m 634 929 l 218 929 l 218 602 l 601 602 l 601 492 l 218 492 l 218 110 l 623 110 l 623 0 l 98 0 l 98 1039 l 634 1039 l 634 929 m 522 1279 l 346 1082 l 248 1082 l 368 1279 l 522 1279 "},"~":{"x_min":61,"x_max":635,"ha":694,"o":"m 635 414 q 570 308 604 345 q 473 259 526 259 q 375 291 441 259 q 319 320 333 314 q 273 343 293 334 q 223 355 244 355 q 140 295 176 355 q 108 230 130 279 l 61 297 q 143 427 104 393 q 223 461 180 461 q 305 440 259 461 q 357 412 316 436 q 422 379 416 381 q 475 363 455 363 q 541 402 508 363 q 587 479 566 432 l 635 414 "},"³":{"x_min":41.734375,"x_max":326,"ha":382,"o":"m 326 641 q 177 478 326 478 q 66 529 99 478 q 41 642 41 568 l 101 642 q 109 573 101 592 q 177 534 126 534 q 237 550 217 534 q 265 626 265 574 q 223 718 265 697 q 145 729 201 729 l 145 790 q 227 809 204 790 q 250 871 250 827 q 177 959 250 959 q 123 929 140 959 q 106 849 106 899 l 52 849 q 83 970 52 926 q 183 1014 112 1014 q 278 978 240 1014 q 316 883 316 941 q 306 822 316 844 q 244 767 289 783 q 301 730 283 752 q 326 641 326 699 "},"¡":{"x_min":121,"x_max":274,"ha":460,"o":"m 274 689 l 121 689 l 121 821 l 274 821 l 274 689 m 262 -208 l 130 -208 l 130 152 l 153 567 l 240 567 l 262 152 l 262 -208 "},"[":{"x_min":141,"x_max":393.171875,"ha":460,"o":"m 393 -296 l 141 -296 l 141 1050 l 393 1050 l 393 951 l 251 951 l 251 -197 l 393 -197 l 393 -296 "},"L":{"x_min":110,"x_max":655.578125,"ha":700,"o":"m 655 0 l 110 0 l 110 1039 l 230 1039 l 230 110 l 655 110 l 655 0 "}," ":{"x_min":0,"x_max":0,"ha":421},"%":{"x_min":65,"x_max":1050,"ha":1160,"o":"m 460 742 q 416 569 460 630 q 273 502 369 502 q 114 567 163 502 q 65 754 65 633 q 96 922 65 859 q 262 1017 145 1017 q 460 742 460 1017 m 830 1039 l 361 -22 l 284 -22 l 754 1039 l 830 1039 m 1050 251 q 864 0 1050 0 q 718 77 765 0 q 678 262 678 144 q 716 431 678 372 q 864 502 762 502 q 1003 445 958 502 q 1050 251 1050 387 m 361 753 q 345 869 361 830 q 262 929 322 929 q 180 870 204 929 q 164 753 164 828 q 183 642 164 682 q 262 590 208 590 q 361 753 361 590 m 951 251 q 928 378 951 342 q 864 415 906 415 q 781 324 796 415 q 777 240 777 300 q 786 144 777 172 q 864 88 806 88 q 935 136 916 88 q 951 251 951 173 "},"P":{"x_min":121,"x_max":733,"ha":777,"o":"m 733 733 q 666 523 733 598 q 426 437 588 437 l 241 437 l 241 0 l 121 0 l 121 1039 l 415 1039 q 627 984 551 1039 q 733 733 733 909 m 601 742 q 553 874 601 832 q 415 918 506 918 l 241 918 l 241 547 l 404 547 q 550 587 506 547 q 601 742 601 633 "},"À":{"x_min":11,"x_max":754,"ha":777,"o":"m 754 0 l 623 0 l 547 296 l 217 296 l 141 0 l 11 0 l 305 1039 l 470 1039 l 754 0 m 513 404 l 383 940 l 251 404 l 513 404 m 469 1086 l 371 1086 l 185 1283 l 350 1283 l 469 1086 "},"_":{"x_min":-11,"x_max":689,"ha":700,"o":"m 689 -164 l -11 -164 l -11 -76 l 689 -76 l 689 -164 "},"ñ":{"x_min":98,"x_max":602,"ha":700,"o":"m 602 0 l 481 0 l 481 525 q 460 650 481 608 q 372 700 435 700 q 261 658 304 700 q 218 536 218 616 l 218 0 l 98 0 l 98 777 l 218 777 l 225 700 q 284 768 237 737 q 393 799 332 799 q 550 751 497 799 q 602 590 602 703 l 602 0 m 585 1036 q 555 924 585 966 q 442 872 518 872 q 353 894 412 872 q 246 926 279 920 q 205 908 222 926 q 179 860 189 890 l 114 860 q 164 987 114 941 q 255 1025 206 1025 q 361 998 292 1025 q 453 970 429 970 q 501 990 483 970 q 518 1036 518 1008 l 585 1036 "},"+":{"x_min":54.265625,"x_max":634.890625,"ha":700,"o":"m 634 296 l 393 296 l 393 0 l 296 0 l 296 296 l 54 296 l 54 404 l 296 404 l 296 699 l 393 699 l 393 404 l 634 404 l 634 296 "},"‚":{"x_min":66,"x_max":208,"ha":271,"o":"m 208 33 q 162 -129 208 -72 q 66 -186 124 -176 l 66 -120 q 123 -63 109 -105 q 131 11 131 -39 l 66 11 l 66 164 l 208 164 l 208 33 "},"½":{"x_min":66.828125,"x_max":801.84375,"ha":833,"o":"m 801 7 l 511 7 q 535 120 519 87 q 582 182 550 154 l 692 291 q 718 330 711 312 q 724 370 724 346 q 724 395 724 387 q 707 456 724 434 q 653 477 690 477 q 576 350 576 477 l 517 350 q 541 482 517 442 q 653 532 572 532 q 758 488 722 532 q 791 384 791 450 q 777 304 791 333 q 735 247 761 273 q 706 218 720 232 q 641 160 678 190 q 604 125 615 136 q 576 63 576 95 l 801 63 l 801 7 m 236 472 l 175 472 l 175 851 l 66 851 l 66 894 q 148 913 125 899 q 186 993 186 936 l 236 993 l 236 472 m 667 869 l 140 -27 l 68 -27 l 593 869 l 667 869 "},"Æ":{"x_min":-11.1875,"x_max":1093.515625,"ha":1160,"o":"m 1093 0 l 590 0 l 590 296 l 273 296 l 130 0 l -11 0 l 503 1050 l 1093 1050 l 1093 940 l 711 940 l 711 602 l 1072 602 l 1072 481 l 711 481 l 711 110 l 1093 110 l 1093 0 m 590 404 l 590 940 l 578 940 l 316 404 l 590 404 "},"Ë":{"x_min":98,"x_max":634.890625,"ha":700,"o":"m 634 929 l 218 929 l 218 602 l 601 602 l 601 492 l 218 492 l 218 110 l 623 110 l 623 0 l 98 0 l 98 1039 l 634 1039 l 634 929 m 532 1091 l 412 1091 l 412 1233 l 532 1233 l 532 1091 m 325 1091 l 204 1091 l 204 1233 l 325 1233 l 325 1091 "},"'":{"x_min":138,"x_max":210,"ha":347,"o":"m 210 712 l 138 712 l 138 1026 l 210 1026 l 210 712 "},"Š":{"x_min":71,"x_max":702,"ha":772,"o":"m 702 287 q 615 57 702 139 q 378 -25 529 -25 q 219 5 283 -25 q 93 140 134 45 q 75 220 77 173 q 71 330 71 268 l 186 330 q 219 147 186 200 q 383 79 262 79 q 529 125 475 79 q 582 261 582 170 q 512 422 582 384 q 412 461 508 424 q 309 498 345 486 q 207 541 244 522 q 111 635 138 577 q 84 777 84 692 q 164 984 84 906 q 374 1062 245 1062 q 596 988 519 1062 q 671 767 671 913 l 555 767 q 516 903 555 855 q 390 958 473 958 q 234 895 278 958 q 204 771 204 852 q 302 630 204 667 l 468 567 q 659 452 610 515 q 702 287 702 397 m 577 1286 q 489 1167 524 1215 q 434 1088 448 1112 l 302 1088 l 161 1286 l 280 1286 l 368 1165 l 444 1286 l 577 1286 "},"ª":{"x_min":-1.359375,"x_max":344.21875,"ha":347,"o":"m 305 696 q 289 695 297 695 q 276 695 280 695 q 234 706 248 695 q 217 746 220 717 q 179 700 202 714 q 130 685 156 685 q 54 714 74 685 q 31 789 31 743 q 47 860 31 835 q 91 899 60 885 l 178 932 q 200 940 195 936 q 212 964 212 949 l 212 1002 q 202 1032 212 1022 q 157 1046 188 1046 q 109 1029 121 1046 q 97 974 97 1012 l 48 974 q 47 995 47 982 q 78 1070 47 1044 q 158 1095 109 1095 q 258 1054 233 1095 q 272 975 272 1030 l 272 772 q 305 740 272 740 l 305 696 m 209 811 l 209 904 q 166 883 195 897 q 121 862 152 876 q 96 837 103 854 q 88 796 88 819 q 99 749 88 764 q 142 732 110 732 q 182 748 164 732 q 209 811 209 769 m 344 557 l -1 557 l -1 627 l 344 627 l 344 557 "},"Œ":{"x_min":76,"x_max":1093.515625,"ha":1160,"o":"m 1093 940 l 711 940 l 711 613 l 1061 613 l 1061 503 l 711 503 l 711 110 l 1083 110 l 1083 0 l 601 0 l 601 88 q 516 5 570 32 q 392 -22 460 -22 q 180 81 258 -22 q 92 308 117 164 q 76 536 76 405 q 87 713 81 624 q 164 952 105 865 q 403 1072 245 1072 q 505 1041 452 1072 q 590 962 558 1010 l 590 1050 l 1093 1050 l 1093 940 m 590 372 l 590 688 q 539 893 590 824 q 403 962 490 962 q 256 855 305 962 q 208 524 208 746 q 234 257 208 358 q 392 88 278 88 q 552 168 506 88 q 590 372 590 234 "},"ð":{"x_min":65,"x_max":666.6875,"ha":700,"o":"m 514 316 q 470 496 514 435 q 349 558 426 558 q 225 499 263 558 q 186 328 186 440 q 225 147 186 206 q 338 88 263 88 q 356 87 351 87 q 479 159 438 87 q 514 316 514 219 m 519 965 l 605 1022 l 666 930 l 579 872 q 636 626 622 777 q 646 448 640 537 q 584 105 646 222 q 349 -33 512 -33 q 121 101 198 -33 q 65 328 65 201 q 148 580 65 487 q 327 664 223 664 q 444 631 391 664 q 524 535 495 598 q 515 671 524 598 q 480 806 504 744 l 387 746 l 327 838 l 420 899 q 338 929 384 929 q 262 923 270 929 q 229 870 249 899 l 156 960 q 220 1021 188 990 q 338 1039 248 1039 q 440 1021 396 1039 q 519 965 483 1001 "},"T":{"x_min":11.1875,"x_max":666.765625,"ha":700,"o":"m 666 918 l 405 918 l 405 0 l 285 0 l 285 918 l 11 918 l 11 1039 l 666 1039 l 666 918 "},"š":{"x_min":41.71875,"x_max":547,"ha":461,"o":"m 547 208 q 480 28 547 89 q 295 -33 413 -33 q 92 61 151 -33 q 54 229 54 124 l 163 229 q 181 114 163 147 q 284 66 208 66 q 396 104 355 66 q 437 197 437 143 q 341 315 437 274 q 217 361 335 318 q 98 443 148 386 q 41 583 41 508 q 43 601 43 595 q 112 749 52 697 q 284 799 170 799 q 446 735 378 799 q 513 558 513 669 l 403 558 q 373 665 395 636 q 284 700 347 700 q 192 670 222 700 q 163 590 163 641 q 234 476 163 511 q 359 428 252 468 q 506 339 466 386 q 547 208 547 291 m 479 1057 q 392 938 427 986 q 337 859 351 883 l 205 859 l 63 1057 l 183 1057 l 271 936 l 347 1057 l 479 1057 "},"Þ":{"x_min":98,"x_max":624,"ha":700,"o":"m 624 554 q 564 219 624 326 q 372 105 500 105 q 265 138 308 105 q 208 204 245 153 l 208 -274 l 98 -274 l 98 1068 l 197 1068 l 197 816 q 276 900 229 873 q 383 927 323 927 q 565 815 501 927 q 624 554 624 715 m 503 510 q 481 707 503 629 q 361 839 447 839 q 231 725 266 839 q 208 510 208 648 q 230 312 208 380 q 361 204 266 204 q 476 316 438 204 q 503 510 503 397 "},"j":{"x_min":17.875,"x_max":214,"ha":308,"o":"m 214 903 l 104 903 l 104 1042 l 214 1042 l 214 903 m 214 -30 q 173 -215 214 -167 q 17 -264 133 -264 l 17 -162 q 66 -159 48 -162 q 91 -143 84 -157 q 101 -110 98 -129 q 104 -72 104 -90 q 104 -40 104 -51 l 104 772 l 214 772 l 214 -30 "},"1":{"x_min":109.890625,"x_max":449,"ha":700,"o":"m 449 0 l 328 0 l 328 754 l 109 754 l 109 841 q 275 882 226 852 q 350 1039 350 927 l 449 1039 l 449 0 "},"›":{"x_min":76,"x_max":285,"ha":383,"o":"m 285 372 l 76 163 l 76 284 l 218 426 l 76 567 l 76 677 l 285 470 l 285 372 "},"ı":{"x_min":98,"x_max":208,"ha":306,"o":"m 208 0 l 98 0 l 98 777 l 208 777 l 208 0 "},"ä":{"x_min":43,"x_max":590.4375,"ha":612,"o":"m 590 0 q 531 -4 558 -4 q 448 18 474 -4 q 414 99 420 40 q 338 7 384 36 q 240 -22 292 -22 q 80 40 127 -22 q 43 186 43 90 q 74 332 43 279 q 163 404 102 379 l 338 471 q 382 490 368 480 q 403 536 403 507 l 403 612 q 382 672 403 650 q 295 700 356 700 q 199 668 223 700 q 174 558 174 636 l 76 558 q 74 582 74 569 q 73 600 73 594 q 135 749 73 697 q 295 799 198 799 q 495 715 445 799 q 525 559 525 667 l 525 153 q 540 102 525 114 q 590 88 555 88 l 590 0 m 398 229 l 398 417 q 317 375 364 397 q 230 335 269 353 q 173 280 190 317 q 157 200 157 243 q 180 104 157 136 q 264 73 202 73 q 346 103 310 73 q 398 229 398 146 m 483 890 l 363 890 l 363 1032 l 483 1032 l 483 890 m 276 890 l 155 890 l 155 1032 l 276 1032 l 276 890 "},"<":{"x_min":54,"x_max":646,"ha":700,"o":"m 646 -11 l 54 316 l 54 404 l 646 733 l 646 623 l 174 361 l 646 98 l 646 -11 "},"£":{"x_min":33.484375,"x_max":677.515625,"ha":700,"o":"m 677 43 q 619 -1 656 15 q 526 -19 580 -19 q 441 -9 487 -19 q 338 22 395 0 q 300 31 319 29 q 259 34 279 34 q 177 19 216 34 q 98 -22 137 4 l 33 65 q 155 175 106 103 q 204 330 204 246 q 194 401 204 365 q 163 471 184 436 l 33 471 l 33 537 l 130 537 q 64 756 64 648 q 144 951 64 875 q 361 1028 225 1028 q 549 961 466 1028 q 647 757 647 883 q 647 736 647 743 q 645 722 645 726 l 524 722 q 526 737 526 730 q 526 754 526 748 q 474 884 526 837 q 352 930 421 930 q 251 896 292 930 q 186 756 186 852 q 205 649 186 703 q 262 537 225 593 l 491 537 l 491 471 l 284 471 q 318 354 318 415 q 273 212 318 284 q 174 98 237 154 q 211 109 195 106 q 305 122 260 122 q 370 118 341 122 q 437 98 399 112 q 512 86 481 86 q 564 94 542 86 q 634 130 587 101 l 677 43 "},"¹":{"x_min":66.828125,"x_max":236,"ha":292,"o":"m 236 473 l 175 473 l 175 851 l 66 851 l 66 894 q 148 913 125 899 q 186 993 186 936 l 236 993 l 236 473 "},"t":{"x_min":11.46875,"x_max":361.71875,"ha":385,"o":"m 361 678 l 241 678 l 241 142 q 247 107 241 115 q 285 99 254 99 l 350 99 l 350 0 l 241 0 q 148 17 169 0 q 121 120 121 41 l 121 678 l 11 678 l 11 777 l 121 777 l 121 973 l 241 973 l 241 777 l 361 777 l 361 678 "},"¬":{"x_min":54,"x_max":1614,"ha":1667,"o":"m 1614 -115 l 54 -115 l 54 948 l 1614 948 l 1614 -115 m 1481 354 l 1481 379 l 1455 379 q 1416 390 1424 379 q 1408 426 1408 400 q 1408 443 1408 437 l 1408 770 q 1414 863 1408 848 q 1454 879 1421 879 l 1481 879 l 1481 904 l 1259 904 l 1259 879 l 1288 879 q 1326 863 1319 879 q 1333 773 1333 847 l 1333 443 q 1328 396 1333 405 q 1282 379 1319 379 l 1259 379 l 1259 354 l 1481 354 m 1584 38 q 1549 105 1584 85 q 1476 129 1527 119 q 1401 150 1423 139 q 1367 199 1367 167 q 1388 246 1367 229 q 1441 263 1409 263 q 1486 251 1463 263 q 1522 222 1506 239 q 1527 203 1524 213 q 1529 174 1529 192 l 1552 174 q 1555 222 1552 201 q 1559 268 1556 242 q 1449 285 1498 285 q 1344 254 1380 285 q 1306 171 1306 222 q 1348 98 1306 122 q 1454 70 1378 82 q 1522 7 1522 54 q 1498 -44 1522 -23 q 1435 -65 1474 -65 q 1380 -55 1406 -65 q 1341 -28 1352 -45 q 1335 8 1335 -20 l 1335 33 l 1313 33 l 1313 17 l 1309 -42 q 1307 -57 1307 -53 q 1314 -75 1307 -74 q 1421 -91 1378 -91 q 1537 -56 1488 -91 q 1584 38 1584 -21 m 1306 256 l 1187 256 q 1188 328 1187 291 q 1194 388 1190 362 q 1277 537 1277 456 q 1110 665 1277 665 q 991 690 1025 665 q 958 767 958 713 q 994 849 958 819 q 1089 879 1029 879 q 1158 866 1125 879 q 1202 844 1190 853 q 1209 799 1209 830 l 1209 767 l 1234 767 q 1246 879 1234 833 q 1093 908 1170 908 q 945 863 1001 908 q 888 738 888 818 q 950 624 888 658 q 1072 601 993 601 q 1183 567 1149 601 q 1209 498 1209 541 q 1169 413 1209 447 q 1059 379 1127 379 q 978 394 1016 379 q 929 430 939 408 l 927 477 l 927 496 l 901 496 q 901 460 901 472 q 897 376 901 409 q 972 354 933 361 q 1044 347 1010 347 q 1115 357 1086 347 q 1123 256 1123 297 q 1059 229 1096 240 l 1059 213 l 1123 213 l 1123 -5 q 1146 -71 1123 -52 q 1211 -91 1169 -91 q 1231 -89 1221 -91 q 1260 -83 1250 -84 l 1298 -36 l 1286 -21 q 1242 -42 1267 -42 q 1202 -25 1213 -42 q 1187 69 1187 -1 l 1187 218 l 1282 219 l 1298 218 l 1306 256 m 1114 -83 l 1114 -59 l 1085 -59 q 1058 -49 1064 -59 q 1053 -13 1053 -41 q 1053 25 1053 10 l 1053 153 q 1009 263 1053 231 q 923 285 978 285 q 832 249 879 285 q 794 213 816 238 l 794 263 q 791 277 794 268 q 789 285 791 279 q 659 256 718 256 l 659 232 l 687 232 q 725 210 725 232 l 725 -28 q 716 -53 725 -48 q 687 -59 706 -59 l 659 -59 l 659 -83 l 859 -83 l 859 -59 l 833 -59 q 794 -28 794 -59 q 794 15 794 -10 q 794 67 794 42 q 794 135 794 101 q 799 186 794 168 q 832 219 804 203 q 894 236 859 236 q 966 207 948 236 q 984 119 984 176 q 984 83 984 97 q 984 58 984 68 q 984 38 984 44 q 984 19 984 26 q 979 -83 984 -43 l 1114 -83 m 944 879 l 944 904 l 779 904 l 779 879 q 826 876 802 879 q 848 861 848 873 l 844 844 q 832 786 833 793 q 811 709 823 754 l 738 466 l 642 728 l 579 908 l 559 908 l 477 694 l 388 470 l 332 717 l 306 844 q 300 857 300 855 q 346 879 300 879 l 370 879 l 370 904 l 172 904 l 172 879 l 187 879 q 217 870 209 879 q 234 820 225 861 l 300 531 l 308 490 q 267 478 287 490 q 213 430 248 466 q 163 366 177 394 q 154 305 154 341 l 154 256 l 98 227 l 98 213 l 154 218 l 154 72 q 154 39 154 54 q 155 7 154 22 q 146 -43 155 -30 q 112 -59 138 -59 l 85 -59 l 85 -83 l 300 -83 l 300 -59 l 269 -59 q 230 -46 238 -59 q 220 0 220 -35 q 220 33 220 14 q 222 72 220 52 l 222 218 l 273 219 l 320 218 l 327 253 l 324 256 l 222 256 l 222 305 q 234 412 222 390 q 283 434 247 434 q 322 421 306 434 l 338 347 l 379 347 q 473 605 414 449 l 548 779 l 612 605 l 692 388 l 704 347 l 746 347 q 847 709 780 490 q 904 873 891 856 q 912 877 908 874 q 923 879 916 879 l 944 879 m 676 110 q 627 236 676 188 q 496 285 578 285 q 353 233 408 285 q 298 100 298 182 q 346 -37 298 15 q 473 -91 393 -91 q 619 -34 560 -91 q 676 110 676 20 m 603 78 q 575 -27 603 8 q 498 -65 547 -65 q 409 -9 443 -65 q 375 128 375 44 q 404 227 375 189 q 479 263 432 263 q 568 215 533 263 q 603 78 603 167 "},"ù":{"x_min":110,"x_max":590,"ha":694,"o":"m 590 0 l 480 0 l 480 99 q 388 1 442 31 q 295 -22 345 -22 q 110 186 110 -22 l 110 777 l 218 777 l 218 175 q 243 89 218 117 q 306 62 268 62 q 424 116 367 62 q 480 241 480 169 l 480 777 l 590 777 l 590 0 m 414 863 l 315 863 l 130 1061 l 294 1061 l 414 863 "},"W":{"x_min":10,"x_max":1104,"ha":1160,"o":"m 1104 1039 l 885 0 l 733 0 l 578 798 l 557 951 l 546 798 l 382 0 l 228 0 l 10 1039 l 140 1039 l 283 327 l 304 120 l 337 327 l 490 1039 l 634 1039 l 786 295 l 809 109 l 830 295 l 984 1039 l 1104 1039 "},"ï":{"x_min":-14,"x_max":314,"ha":306,"o":"m 208 0 l 98 0 l 98 777 l 208 777 l 208 0 m 314 897 l 194 897 l 194 1039 l 314 1039 l 314 897 m 107 897 l -14 897 l -14 1039 l 107 1039 l 107 897 "},">":{"x_min":65,"x_max":656,"ha":700,"o":"m 656 305 l 65 -11 l 65 98 l 536 361 l 65 612 l 65 722 l 656 404 l 656 305 "},"v":{"x_min":11,"x_max":602,"ha":626,"o":"m 602 777 l 372 0 l 240 0 l 11 777 l 130 777 l 305 98 l 480 777 l 602 777 "},"û":{"x_min":110,"x_max":590,"ha":694,"o":"m 590 0 l 480 0 l 480 99 q 388 1 442 31 q 295 -22 345 -22 q 110 186 110 -22 l 110 777 l 218 777 l 218 175 q 243 89 218 117 q 306 62 268 62 q 424 116 367 62 q 480 241 480 169 l 480 777 l 590 777 l 590 0 m 563 868 l 430 868 l 354 989 l 266 868 l 147 868 l 288 1065 l 421 1065 q 495 958 443 1026 q 563 868 528 912 "},"Ò":{"x_min":76,"x_max":777,"ha":853,"o":"m 777 525 q 767 311 777 377 q 679 83 746 164 q 426 -22 591 -22 q 144 129 225 -22 q 76 536 76 257 q 83 738 76 687 q 169 958 102 879 q 426 1061 256 1061 q 653 976 569 1061 q 754 770 725 904 q 777 525 777 670 m 646 536 q 609 824 646 737 q 415 951 558 951 q 235 813 288 951 q 197 536 197 713 q 202 389 199 462 q 252 182 212 258 q 426 77 309 77 q 613 194 563 77 q 647 434 647 272 q 647 486 647 461 q 646 536 646 511 m 518 1099 l 419 1099 l 234 1297 l 398 1297 l 518 1099 "},"&":{"x_min":98,"x_max":885.9375,"ha":929,"o":"m 885 0 l 733 0 l 655 99 q 550 11 616 43 q 415 -22 483 -22 q 170 76 256 -22 q 98 273 98 158 q 182 498 98 405 q 316 601 217 536 q 234 727 258 659 q 217 830 217 776 q 263 972 217 911 q 426 1050 321 1050 q 587 987 529 1050 q 646 830 646 924 q 583 676 646 750 q 471 579 543 627 l 666 296 q 694 415 687 377 q 699 491 699 452 l 809 491 q 793 336 809 409 q 733 197 772 244 l 885 0 m 525 841 q 500 912 525 883 q 426 940 473 940 q 352 910 377 940 q 327 830 327 881 q 359 734 335 777 q 415 666 381 691 q 486 724 457 687 q 525 841 525 775 m 601 186 l 372 514 q 276 421 305 459 q 229 285 229 358 q 294 133 229 187 q 426 88 349 88 q 520 114 475 88 q 601 186 566 140 "},"Ð":{"x_min":53.578125,"x_max":793,"ha":875,"o":"m 257 575 l 349 575 l 349 465 l 257 465 l 257 110 l 442 110 q 630 241 578 110 q 662 465 662 323 q 662 513 662 501 q 627 806 662 726 q 410 929 574 929 l 257 929 l 257 575 m 137 465 l 53 465 l 53 575 l 137 575 l 137 1039 l 442 1039 q 669 961 585 1039 q 770 775 741 894 q 793 558 793 686 q 742 213 793 336 q 420 0 655 0 l 137 0 l 137 465 "},"I":{"x_min":121,"x_max":241,"ha":383,"o":"m 241 0 l 121 0 l 121 1039 l 241 1039 l 241 0 "},"G":{"x_min":75,"x_max":739,"ha":850,"o":"m 739 -8 l 650 -8 l 650 154 q 561 22 626 68 q 408 -25 495 -25 q 184 63 265 -25 q 92 274 118 137 q 75 527 75 373 q 176 956 75 830 q 419 1062 261 1062 q 647 974 565 1062 q 729 738 729 887 l 612 738 q 569 895 612 840 q 425 958 521 958 q 264 885 319 958 q 204 716 220 828 q 195 523 195 647 q 215 243 195 323 q 392 79 258 79 q 558 145 503 79 q 623 431 623 223 l 392 431 l 392 535 l 739 535 l 739 -8 "},"`":{"x_min":33,"x_max":317,"ha":460,"o":"m 317 863 l 218 863 l 33 1061 l 197 1061 l 317 863 "},"·":{"x_min":143,"x_max":274,"ha":424,"o":"m 264 305 q 208 275 244 275 q 173 284 188 275 q 143 340 143 304 q 152 375 143 359 q 208 405 172 405 q 243 395 228 405 q 274 340 274 376 q 264 305 274 320 "},"r":{"x_min":110,"x_max":448.453125,"ha":461,"o":"m 448 666 q 416 669 426 669 q 278 591 332 669 q 230 426 230 520 l 230 0 l 110 0 l 110 777 l 218 777 l 218 655 q 304 757 251 728 q 448 787 357 787 l 448 666 "},"¿":{"x_min":54,"x_max":612.5,"ha":700,"o":"m 427 634 l 285 634 l 285 787 l 427 787 l 427 634 m 612 54 q 559 -152 612 -74 q 316 -262 486 -262 q 126 -189 198 -262 q 54 11 54 -117 q 113 182 54 94 q 223 316 120 191 q 285 437 285 390 l 285 547 l 427 547 l 427 448 q 365 301 427 379 q 248 165 307 233 q 186 11 186 83 q 211 -113 186 -74 q 327 -163 243 -163 q 448 -106 404 -163 q 491 54 491 -51 l 612 54 "},"ý":{"x_min":-11,"x_max":591,"ha":614,"o":"m 591 777 l 383 87 q 319 -110 347 -45 q 240 -228 285 -191 q 119 -268 204 -268 q 22 -250 75 -268 l 22 -141 q 112 -169 65 -169 q 201 -132 168 -169 q 240 -10 240 -91 l -11 777 l 110 777 l 296 98 l 471 777 l 591 777 m 466 1050 l 291 852 l 192 852 l 313 1050 l 466 1050 "},"x":{"x_min":9,"x_max":611,"ha":612,"o":"m 611 0 l 478 0 l 303 295 l 128 0 l 9 0 l 238 393 l 9 777 l 139 777 l 303 491 l 469 777 l 600 777 l 370 393 l 611 0 "},"è":{"x_min":60,"x_max":548.828125,"ha":617,"o":"m 548 376 l 174 376 q 174 346 174 359 q 174 323 174 332 q 193 158 174 210 q 312 72 225 72 q 415 131 383 72 q 440 256 440 178 l 543 256 q 487 60 543 134 q 309 -21 426 -21 q 130 66 191 -21 q 60 387 60 167 q 105 651 60 548 q 307 793 168 793 q 521 652 471 793 q 548 376 548 574 m 434 467 q 419 617 434 570 q 308 700 391 700 q 193 618 223 700 q 174 467 174 566 l 434 467 m 393 857 l 294 857 l 109 1054 l 273 1054 l 393 857 "},"º":{"x_min":-2,"x_max":344.8125,"ha":361,"o":"m 317 880 q 287 727 317 780 q 178 666 254 666 q 63 732 98 666 q 37 874 37 784 q 61 1016 37 967 q 178 1083 96 1083 q 283 1030 249 1083 q 317 880 317 975 m 256 874 q 244 977 256 945 q 173 1033 225 1033 q 106 979 123 1033 q 97 880 97 946 q 107 774 97 806 q 179 722 126 722 q 243 777 225 722 q 256 874 256 816 m 344 557 l -2 557 l -2 627 l 344 627 l 344 557 "},"Ø":{"x_min":32.9375,"x_max":799.046875,"ha":853,"o":"m 799 1072 l 700 928 q 755 779 733 870 q 777 590 777 687 q 764 332 777 419 q 671 80 740 169 q 415 -33 582 -33 q 259 7 324 -33 q 185 88 205 40 l 87 -76 l 32 -22 l 141 153 q 89 307 103 214 q 76 536 76 400 q 134 897 76 778 q 415 1061 213 1061 q 567 1038 505 1061 q 655 984 619 1020 l 743 1115 l 799 1072 m 590 874 q 510 935 555 912 q 422 958 466 958 q 274 866 331 958 q 208 547 208 758 q 212 384 208 436 q 229 296 216 333 l 590 874 m 623 787 l 251 197 q 320 115 274 143 q 422 88 366 88 q 532 119 481 88 q 601 208 580 150 q 634 358 622 260 q 646 561 646 457 q 640 698 646 637 q 623 787 634 757 "},"÷":{"x_min":54,"x_max":552,"ha":611,"o":"m 552 337 l 54 337 l 54 447 l 552 447 l 552 337 m 374 623 l 243 623 l 243 765 l 374 765 l 374 623 m 374 0 l 243 0 l 243 142 l 374 142 l 374 0 "},"h":{"x_min":101,"x_max":595,"ha":694,"o":"m 595 0 l 485 0 l 485 565 q 461 662 485 630 q 369 700 433 700 q 316 687 340 700 q 264 648 292 675 q 223 590 235 620 q 211 516 211 559 l 211 0 l 101 0 l 101 1042 l 211 1042 l 211 687 q 298 766 252 740 q 404 793 344 793 q 545 744 494 793 q 595 595 595 695 l 595 0 "},".":{"x_min":110,"x_max":241,"ha":350,"o":"m 241 0 l 110 0 l 110 142 l 241 142 l 241 0 "},";":{"x_min":87,"x_max":229,"ha":350,"o":"m 229 635 l 98 635 l 98 777 l 229 777 l 229 635 m 229 22 q 183 -140 229 -82 q 87 -197 145 -187 l 87 -130 q 144 -73 130 -116 q 152 0 152 -48 l 87 0 l 87 153 l 229 153 l 229 22 "},"f":{"x_min":11.46875,"x_max":361.71875,"ha":383,"o":"m 361 688 l 241 688 l 241 0 l 121 0 l 121 688 l 11 688 l 11 787 l 121 787 l 121 908 q 183 1035 121 996 q 307 1065 231 1065 q 361 1060 337 1065 l 361 962 q 275 946 310 962 q 229 885 229 926 l 229 787 l 361 787 l 361 688 "},"“":{"x_min":87,"x_max":471,"ha":536,"o":"m 471 722 l 327 722 l 327 864 q 359 1005 327 954 q 471 1072 389 1055 l 471 1005 q 413 955 429 994 q 403 887 403 930 q 403 864 403 869 l 471 864 l 471 722 m 229 722 l 87 722 l 87 864 q 118 1005 87 954 q 229 1072 149 1055 l 229 1005 q 177 963 189 994 q 163 891 163 931 q 163 864 163 870 l 229 864 l 229 722 "},"A":{"x_min":11,"x_max":754,"ha":777,"o":"m 754 0 l 623 0 l 547 296 l 217 296 l 141 0 l 11 0 l 305 1039 l 470 1039 l 754 0 m 513 404 l 383 940 l 251 404 l 513 404 "},"6":{"x_min":54,"x_max":635,"ha":700,"o":"m 635 328 q 579 102 635 201 q 349 -33 502 -33 q 116 104 188 -33 q 54 448 54 223 q 65 644 59 546 q 137 907 81 811 q 361 1039 213 1039 q 540 991 481 1039 q 612 787 612 933 l 491 787 q 462 894 491 858 q 361 929 433 929 q 211 781 255 929 q 174 535 190 712 q 256 631 203 598 q 372 664 308 664 q 551 581 477 664 q 635 328 635 489 m 514 327 q 476 499 514 441 q 349 558 438 558 q 229 498 272 558 q 186 316 186 438 q 219 158 186 218 q 344 86 259 86 q 361 88 355 88 q 514 327 514 88 "},"‘":{"x_min":87,"x_max":229,"ha":306,"o":"m 229 711 l 87 711 l 87 853 q 118 994 87 943 q 229 1061 149 1044 l 229 995 q 177 951 189 983 q 163 880 163 919 q 163 853 163 859 l 229 853 l 229 711 "},"O":{"x_min":76,"x_max":777,"ha":853,"o":"m 777 525 q 767 311 777 377 q 679 83 746 164 q 426 -22 591 -22 q 144 129 225 -22 q 76 536 76 257 q 83 738 76 687 q 169 958 102 879 q 426 1061 256 1061 q 653 976 569 1061 q 754 770 725 904 q 777 525 777 670 m 646 536 q 609 824 646 737 q 415 951 558 951 q 235 813 288 951 q 197 536 197 713 q 202 389 199 462 q 252 182 212 258 q 426 77 309 77 q 613 194 563 77 q 647 434 647 272 q 647 486 647 461 q 646 536 646 511 "},"n":{"x_min":98,"x_max":602,"ha":700,"o":"m 602 0 l 481 0 l 481 525 q 460 650 481 608 q 372 700 435 700 q 261 658 304 700 q 218 536 218 616 l 218 0 l 98 0 l 98 777 l 218 777 l 225 700 q 284 768 237 737 q 393 799 332 799 q 550 751 497 799 q 602 590 602 703 l 602 0 "},"3":{"x_min":43.078125,"x_max":613,"ha":700,"o":"m 613 305 q 539 62 613 147 q 317 -22 464 -22 q 94 79 159 -22 q 43 306 43 158 l 163 306 q 182 164 163 206 q 316 88 215 88 q 437 122 395 88 q 492 274 492 167 q 408 458 492 415 q 251 481 365 481 l 251 602 q 279 602 269 602 q 395 625 357 602 q 460 765 460 664 q 425 895 460 851 q 316 940 390 940 q 205 876 241 940 q 175 722 175 821 l 65 722 q 122 955 65 873 q 328 1050 187 1050 q 517 976 443 1050 q 591 787 591 902 q 569 665 591 714 q 448 558 536 588 q 564 482 528 528 q 613 305 613 421 "},"9":{"x_min":54,"x_max":635,"ha":700,"o":"m 635 568 q 597 200 635 320 q 327 -22 527 -22 q 131 51 194 -22 q 76 240 76 116 l 197 240 q 241 119 197 159 q 327 88 277 88 q 485 261 446 88 q 503 491 503 342 q 440 398 494 434 q 316 361 386 361 q 135 438 208 361 q 54 688 54 527 q 103 905 54 806 q 327 1050 177 1050 q 533 962 458 1050 q 618 766 593 893 q 635 568 635 680 m 503 722 q 450 888 503 828 q 338 940 404 940 q 204 856 244 940 q 175 699 175 797 q 223 523 175 583 q 338 471 266 471 q 465 543 423 471 q 503 722 503 608 "},"l":{"x_min":98,"x_max":218,"ha":306,"o":"m 218 0 l 98 0 l 98 1050 l 218 1050 l 218 0 "},"¤":{"x_min":22.28125,"x_max":663,"ha":700,"o":"m 655 153 l 590 76 l 525 130 q 339 71 450 71 q 237 88 286 71 q 153 141 189 105 l 99 76 l 22 153 l 76 208 q 37 304 49 252 q 25 408 25 354 q 87 624 25 533 l 33 678 l 99 743 l 153 689 q 232 740 179 721 q 345 760 285 760 q 446 743 397 760 q 525 689 493 725 l 590 754 l 655 678 l 602 624 q 647 514 631 569 q 663 408 663 458 q 602 208 663 308 l 655 153 m 350 164 q 507 248 450 176 q 559 408 559 315 q 503 578 559 508 q 339 656 440 656 q 180 578 240 656 q 127 405 127 507 q 180 239 127 305 q 350 164 242 164 "},"4":{"x_min":33.234375,"x_max":623.484375,"ha":700,"o":"m 623 262 l 536 262 l 536 0 l 415 0 l 415 262 l 33 262 l 33 383 l 415 1050 l 536 1050 l 536 383 l 623 383 l 623 262 m 415 383 l 415 852 l 141 383 l 415 383 "},"p":{"x_min":98,"x_max":624,"ha":700,"o":"m 624 415 q 564 80 624 187 q 372 -33 500 -33 q 265 0 308 -33 q 208 66 245 15 l 208 -274 l 98 -274 l 98 777 l 197 777 l 197 676 q 276 760 229 734 q 383 787 323 787 q 565 676 501 787 q 624 415 624 576 m 503 372 q 481 567 503 489 q 361 699 447 699 q 231 585 266 699 q 208 372 208 509 q 230 173 208 241 q 361 66 266 66 q 476 177 438 66 q 503 372 503 258 "},"‡":{"x_min":43.078125,"x_max":646.078125,"ha":700,"o":"m 646 65 l 405 65 l 405 -251 l 285 -251 l 285 65 l 43 65 l 43 164 l 285 164 l 285 623 l 43 623 l 43 722 l 285 722 l 285 1050 l 405 1050 l 405 722 l 634 722 l 634 623 l 405 623 l 405 164 l 646 164 l 646 65 "},"à":{"x_min":43,"x_max":590.4375,"ha":612,"o":"m 590 0 q 531 -4 558 -4 q 448 18 474 -4 q 414 99 420 40 q 338 7 384 36 q 240 -22 292 -22 q 80 40 127 -22 q 43 186 43 90 q 74 332 43 279 q 163 404 102 379 l 338 471 q 382 490 368 480 q 403 536 403 507 l 403 612 q 382 672 403 650 q 295 700 356 700 q 199 668 223 700 q 174 558 174 636 l 76 558 q 74 582 74 569 q 73 600 73 594 q 135 749 73 697 q 295 799 198 799 q 495 715 445 799 q 525 559 525 667 l 525 153 q 540 102 525 114 q 590 88 555 88 l 590 0 m 398 229 l 398 417 q 317 375 364 397 q 230 335 269 353 q 173 280 190 317 q 157 200 157 243 q 180 104 157 136 q 264 73 202 73 q 346 103 310 73 q 398 229 398 146 m 414 850 l 315 850 l 130 1047 l 294 1047 l 414 850 "},"Ü":{"x_min":110,"x_max":743,"ha":854,"o":"m 743 251 q 693 78 743 144 q 437 -22 618 -22 q 171 62 244 -22 q 110 295 110 133 l 110 1039 l 230 1039 l 230 296 q 282 131 230 179 q 426 88 329 88 q 577 144 530 88 q 623 317 623 200 l 623 1039 l 743 1039 l 743 251 m 587 1084 l 467 1084 l 467 1226 l 587 1226 l 587 1084 m 380 1084 l 259 1084 l 259 1226 l 380 1226 l 380 1084 "},"ó":{"x_min":65,"x_max":624,"ha":700,"o":"m 624 393 q 565 90 624 196 q 349 -33 497 -33 q 117 100 187 -33 q 65 383 65 201 q 116 664 65 564 q 349 799 185 799 q 561 688 493 799 q 624 393 624 586 m 503 383 q 479 590 503 522 q 338 700 441 700 q 205 591 238 700 q 186 393 186 529 q 209 182 186 249 q 349 77 247 77 q 479 189 441 77 q 503 383 503 261 m 563 1036 l 388 838 l 289 838 l 410 1036 l 563 1036 "}}}
